<svg xmlns="http://www.w3.org/2000/svg" xmlns:xlink="http://www.w3.org/1999/xlink" viewBox="0 0 1280 720" width="1280" height="720" role="img">

  <style>
    text { font-family: 'Helvetica Neue', Helvetica, Arial, sans-serif; fill: #111827; }
    .title { font-size: 24px; font-weight: 700; }
    .subtitle { font-size: 13px; fill: #6b7280; }
    .section-title { font-size: 14px; font-weight: 700; }
    .node-title { font-size: 14px; font-weight: 700; }
    .node-line { font-size: 12px; fill: #6b7280; }
    .edge-label { font-size: 11px; font-weight: 600; fill: #374151; }
    .section { fill: #ffffff; stroke: #d1d5db; stroke-width: 1.4; stroke-dasharray: 7 5; }
    .node { fill: #ffffff; stroke: #d1d5db; stroke-width: 1.5; }
    .blue { fill: #eff6ff; stroke: #bfdbfe; }
    .green { fill: #f0fdf4; stroke: #bbf7d0; }
    .purple { fill: #faf5ff; stroke: #e9d5ff; }
    .orange { fill: #fff7ed; stroke: #fed7aa; }
    .teal { fill: #f0fdfa; stroke: #99f6e4; }
    .red { fill: #fef2f2; stroke: #fecaca; }
    .gray { fill: #f9fafb; stroke: #d1d5db; }
    .request { stroke: #2563eb; stroke-width: 2.2; fill: none; marker-end: url(#arrow-blue); }
    .data { stroke: #16a34a; stroke-width: 2.2; fill: none; marker-end: url(#arrow-green); }
    .async { stroke: #dc2626; stroke-width: 2.2; fill: none; stroke-dasharray: 7 5; marker-end: url(#arrow-red); }
    .ai { stroke: #9333ea; stroke-width: 2.2; fill: none; marker-end: url(#arrow-purple); }
    .browser { stroke: #ea580c; stroke-width: 2.2; fill: none; marker-end: url(#arrow-orange); }
    .muted { stroke: #9ca3af; stroke-width: 1.8; fill: none; marker-end: url(#arrow-gray); }
  </style>


  <defs>
    <marker id="arrow-blue" markerWidth="10" markerHeight="7" refX="9" refY="3.5" orient="auto"><polygon points="0 0, 10 3.5, 0 7" fill="#2563eb"/></marker>
    <marker id="arrow-green" markerWidth="10" markerHeight="7" refX="9" refY="3.5" orient="auto"><polygon points="0 0, 10 3.5, 0 7" fill="#16a34a"/></marker>
    <marker id="arrow-red" markerWidth="10" markerHeight="7" refX="9" refY="3.5" orient="auto"><polygon points="0 0, 10 3.5, 0 7" fill="#dc2626"/></marker>
    <marker id="arrow-purple" markerWidth="10" markerHeight="7" refX="9" refY="3.5" orient="auto"><polygon points="0 0, 10 3.5, 0 7" fill="#9333ea"/></marker>
    <marker id="arrow-orange" markerWidth="10" markerHeight="7" refX="9" refY="3.5" orient="auto"><polygon points="0 0, 10 3.5, 0 7" fill="#ea580c"/></marker>
    <marker id="arrow-gray" markerWidth="10" markerHeight="7" refX="9" refY="3.5" orient="auto"><polygon points="0 0, 10 3.5, 0 7" fill="#9ca3af"/></marker>
  </defs>

  <rect width="1280" height="720" fill="#ffffff"/>
  <text x="40" y="44" class="title">AI Editing Module Design</text>
  <text x="40" y="68" class="subtitle">Streaming edits flow from React widgets through the Go backend into FastAPI and back as reviewable proposals.</text>
  <rect x="40" y="105" width="360" height="545" rx="14" class="section"/>
  <text x="62" y="135" class="section-title">Frontend review loop</text>
  <rect x="460" y="105" width="330" height="545" rx="14" class="section"/>
  <text x="482" y="135" class="section-title">Backend proxy</text>
  <rect x="850" y="105" width="390" height="545" rx="14" class="section"/>
  <text x="872" y="135" class="section-title">AI service</text>
  <rect x="75" y="165" width="290" height="125" rx="10" class="node purple"/>
  <svg x="99" y="183" width="26" height="26" viewBox="0 0 24 24" aria-hidden="true" focusable="false">
<path fill="#61DAFB" d="M14.23 12.004a2.236 2.236 0 0 1-2.235 2.236a2.236 2.236 0 0 1-2.236-2.236a2.236 2.236 0 0 1 2.235-2.236a2.236 2.236 0 0 1 2.236 2.236m2.648-10.69c-1.346 0-3.107.96-4.888 2.622c-1.78-1.653-3.542-2.602-4.887-2.602c-.41 0-.783.093-1.106.278c-1.375.793-1.683 3.264-.973 6.365C1.98 8.917 0 10.42 0 12.004c0 1.59 1.99 3.097 5.043 4.03c-.704 3.113-.39 5.588.988 6.38c.32.187.69.275 1.102.275c1.345 0 3.107-.96 4.888-2.624c1.78 1.654 3.542 2.603 4.887 2.603c.41 0 .783-.09 1.106-.275c1.374-.792 1.683-3.263.973-6.365C22.02 15.096 24 13.59 24 12.004c0-1.59-1.99-3.097-5.043-4.032c.704-3.11.39-5.587-.988-6.38a2.17 2.17 0 0 0-1.092-.278zm-.005 1.09v.006c.225 0 .406.044.558.127c.666.382.955 1.835.73 3.704c-.054.46-.142.945-.25 1.44a23.5 23.5 0 0 0-3.107-.534A24 24 0 0 0 12.769 4.7c1.592-1.48 3.087-2.292 4.105-2.295zm-9.77.02c1.012 0 2.514.808 4.11 2.28c-.686.72-1.37 1.537-2.02 2.442a23 23 0 0 0-3.113.538a15 15 0 0 1-.254-1.42c-.23-1.868.054-3.32.714-3.707c.19-.09.4-.127.563-.132zm4.882 3.05q.684.704 1.36 1.564c-.44-.02-.89-.034-1.345-.034q-.691-.001-1.36.034c.44-.572.895-1.096 1.345-1.565zM12 8.1c.74 0 1.477.034 2.202.093q.61.874 1.183 1.86q.557.961 1.018 1.946c-.308.655-.646 1.31-1.013 1.95c-.38.66-.773 1.288-1.18 1.87a25.6 25.6 0 0 1-4.412.005a27 27 0 0 1-1.183-1.86q-.557-.961-1.018-1.946a25 25 0 0 1 1.013-1.954c.38-.66.773-1.286 1.18-1.868A25 25 0 0 1 12 8.098zm-3.635.254c-.24.377-.48.763-.704 1.16q-.336.585-.635 1.174c-.265-.656-.49-1.31-.676-1.947c.64-.15 1.315-.283 2.015-.386zm7.26 0q1.044.153 2.006.387c-.18.632-.405 1.282-.66 1.933a26 26 0 0 0-1.345-2.32zm3.063.675q.727.226 1.375.498c1.732.74 2.852 1.708 2.852 2.476c-.005.768-1.125 1.74-2.857 2.475c-.42.18-.88.342-1.355.493a24 24 0 0 0-1.1-2.98c.45-1.017.81-2.01 1.085-2.964zm-13.395.004c.278.96.645 1.957 1.1 2.98a23 23 0 0 0-1.086 2.964c-.484-.15-.944-.318-1.37-.5c-1.732-.737-2.852-1.706-2.852-2.474s1.12-1.742 2.852-2.476c.42-.18.88-.342 1.356-.494m11.678 4.28c.265.657.49 1.312.676 1.948c-.64.157-1.316.29-2.016.39a26 26 0 0 0 1.341-2.338zm-9.945.02c.2.392.41.783.64 1.175q.345.586.705 1.143a22 22 0 0 1-2.006-.386c.18-.63.406-1.282.66-1.933zM17.92 16.32c.112.493.2.968.254 1.423c.23 1.868-.054 3.32-.714 3.708c-.147.09-.338.128-.563.128c-1.012 0-2.514-.807-4.11-2.28c.686-.72 1.37-1.536 2.02-2.44c1.107-.118 2.154-.3 3.113-.54zm-11.83.01c.96.234 2.006.415 3.107.532c.66.905 1.345 1.727 2.035 2.446c-1.595 1.483-3.092 2.295-4.11 2.295a1.2 1.2 0 0 1-.553-.132c-.666-.38-.955-1.834-.73-3.703c.054-.46.142-.944.25-1.438zm4.56.64q.661.032 1.345.034q.691.001 1.36-.034c-.44.572-.895 1.095-1.345 1.565q-.684-.706-1.36-1.565"/>
</svg>
  <text x="99" y="223" class="node-title">AIEditAssistant</text>
  <text x="99" y="245" class="node-line">Prompt textarea</text>
  <text x="99" y="263" class="node-line">Abort controller</text>
  <text x="99" y="281" class="node-line">Preview / diff tabs</text>
  <rect x="75" y="330" width="290" height="110" rx="10" class="node green"/>
  <text x="99" y="361" class="node-title">Apply boundary</text>
  <text x="99" y="383" class="node-line">Accept writes proposal</text>
  <text x="99" y="401" class="node-line">Reject clears proposal</text>
  <text x="99" y="419" class="node-line">No direct DB write here</text>
  <rect x="495" y="180" width="260" height="130" rx="10" class="node blue"/>
  <svg x="519" y="198" width="26" height="26" viewBox="0 0 24 24" aria-hidden="true" focusable="false">
<path fill="#3178C6" d="M1.125 0C.502 0 0 .502 0 1.125v21.75C0 23.498.502 24 1.125 24h21.75c.623 0 1.125-.502 1.125-1.125V1.125C24 .502 23.498 0 22.875 0zm17.363 9.75q.918 0 1.627.111a6.4 6.4 0 0 1 1.306.34v2.458a4 4 0 0 0-.643-.361a5 5 0 0 0-.717-.26a5.5 5.5 0 0 0-1.426-.2q-.45 0-.819.086a2.1 2.1 0 0 0-.623.242q-.254.156-.393.374a.9.9 0 0 0-.14.49q0 .294.156.529q.156.234.443.444c.287.21.423.276.696.41q.41.203.926.416q.705.296 1.266.628q.561.333.963.753q.402.418.614.957q.213.538.214 1.253q0 .986-.373 1.656a3 3 0 0 1-1.012 1.085a4.4 4.4 0 0 1-1.487.596q-.85.18-1.79.18a10 10 0 0 1-1.84-.164a5.5 5.5 0 0 1-1.512-.493v-2.63a5.03 5.03 0 0 0 3.237 1.2q.5 0 .872-.09q.373-.09.623-.25q.249-.162.373-.38a1.02 1.02 0 0 0-.074-1.089a2.1 2.1 0 0 0-.537-.5a5.6 5.6 0 0 0-.807-.444a28 28 0 0 0-1.007-.436q-1.377-.575-2.053-1.405t-.676-2.005q0-.92.369-1.582q.368-.662 1.004-1.089a4.5 4.5 0 0 1 1.47-.629a7.5 7.5 0 0 1 1.77-.201m-15.113.188h9.563v2.166H9.506v9.646H6.789v-9.646H3.375z"/>
</svg>
  <text x="519" y="238" class="node-title">streamDashboardText</text>
  <text x="519" y="260" class="node-line">Fetch with auth token</text>
  <text x="519" y="278" class="node-line">ReadableStream reader</text>
  <text x="519" y="296" class="node-line">Chunk accumulation</text>
  <rect x="495" y="345" width="260" height="125" rx="10" class="node purple"/>
  <svg x="519" y="363" width="26" height="26" viewBox="0 0 24 24" aria-hidden="true" focusable="false">
<path fill="#00ADD8" d="M1.811 10.231c-.047 0-.058-.023-.035-.059l.246-.315c.023-.035.081-.058.128-.058h4.172c.046 0 .058.035.035.07l-.199.303c-.023.036-.082.07-.117.07zM.047 11.306c-.047 0-.059-.023-.035-.058l.245-.316c.023-.035.082-.058.129-.058h5.328c.047 0 .07.035.058.07l-.093.28c-.012.047-.058.07-.105.07zm2.828 1.075c-.047 0-.059-.035-.035-.07l.163-.292c.023-.035.07-.07.117-.07h2.337c.047 0 .07.035.07.082l-.023.28c0 .047-.047.082-.082.082zm12.129-2.36c-.736.187-1.239.327-1.963.514c-.176.046-.187.058-.34-.117c-.174-.199-.303-.327-.548-.444c-.737-.362-1.45-.257-2.115.175c-.795.514-1.204 1.274-1.192 2.22c.011.935.654 1.706 1.577 1.835c.795.105 1.46-.175 1.987-.77c.105-.13.198-.27.315-.434H10.47c-.245 0-.304-.152-.222-.35c.152-.362.432-.97.596-1.274a.32.32 0 0 1 .292-.187h4.253c-.023.316-.023.631-.07.947a5 5 0 0 1-.958 2.29c-.841 1.11-1.94 1.8-3.33 1.986c-1.145.152-2.209-.07-3.143-.77c-.865-.655-1.356-1.52-1.484-2.595c-.152-1.274.222-2.419.993-3.424c.83-1.086 1.928-1.776 3.272-2.02c1.098-.2 2.15-.07 3.096.571c.62.41 1.063.97 1.356 1.648c.07.105.023.164-.117.2m3.868 6.461c-1.064-.024-2.034-.328-2.852-1.029a3.67 3.67 0 0 1-1.262-2.255c-.21-1.32.152-2.489.947-3.529c.853-1.122 1.881-1.706 3.272-1.95c1.192-.21 2.314-.095 3.33.595c.923.63 1.496 1.484 1.648 2.605c.198 1.578-.257 2.863-1.344 3.962c-.771.783-1.718 1.273-2.805 1.495c-.315.06-.63.07-.934.106m2.78-4.72c-.011-.153-.011-.27-.034-.387c-.21-1.157-1.274-1.81-2.384-1.554c-1.087.245-1.788.935-2.045 2.033c-.21.912.234 1.835 1.075 2.21c.643.28 1.285.244 1.905-.07c.923-.48 1.425-1.228 1.484-2.233z"/>
</svg>
  <text x="519" y="403" class="node-title">Go AI proxy routes</text>
  <text x="519" y="425" class="node-line">Access control via JWT</text>
  <text x="519" y="443" class="node-line">Project or draft context</text>
  <text x="519" y="461" class="node-line">Streams response body</text>
  <rect x="885" y="145" width="290" height="125" rx="10" class="node purple"/>
  <svg x="909" y="163" width="26" height="26" viewBox="0 0 24 24" aria-hidden="true" focusable="false">
<path fill="#05998B" d="M12 .039c-6.627 0-12 5.354-12 11.96c-.001 6.606 5.372 11.963 12 11.962S24.001 18.605 24 12S18.627.039 12 .039m-.829 5.415h7.55l-7.58 5.329h5.182L5.28 18.543l5.891-13.088"/>
</svg>
  <svg x="945" y="163" width="26" height="26" viewBox="0 0 24 24" aria-hidden="true" focusable="false">
<path fill="#3776AB" d="m14.25.18l.9.2l.73.26l.59.3l.45.32l.34.34l.25.34l.16.33l.1.3l.04.26l.02.2l-.01.13V8.5l-.05.63l-.13.55l-.21.46l-.26.38l-.3.31l-.33.25l-.35.19l-.35.14l-.33.1l-.3.07l-.26.04l-.21.02H8.77l-.69.05l-.59.14l-.5.22l-.41.27l-.33.32l-.27.35l-.2.36l-.15.37l-.1.35l-.07.32l-.04.27l-.02.21v3.06H3.17l-.21-.03l-.28-.07l-.32-.12l-.35-.18l-.36-.26l-.36-.36l-.35-.46l-.32-.59l-.28-.73l-.21-.88l-.14-1.05l-.05-1.23l.06-1.22l.16-1.04l.24-.87l.32-.71l.36-.57l.4-.44l.42-.33l.42-.24l.4-.16l.36-.1l.32-.05l.24-.01h.16l.06.01h8.16v-.83H6.18l-.01-2.75l-.02-.37l.05-.34l.11-.31l.17-.28l.25-.26l.31-.23l.38-.2l.44-.18l.51-.15l.58-.12l.64-.1l.71-.06l.77-.04l.84-.02l1.27.05zm-6.3 1.98l-.23.33l-.08.41l.08.41l.23.34l.33.22l.41.09l.41-.09l.33-.22l.23-.34l.08-.41l-.08-.41l-.23-.33l-.33-.22l-.41-.09l-.41.09zm13.09 3.95l.28.06l.32.12l.35.18l.36.27l.36.35l.35.47l.32.59l.28.73l.21.88l.14 1.04l.05 1.23l-.06 1.23l-.16 1.04l-.24.86l-.32.71l-.36.57l-.4.45l-.42.33l-.42.24l-.4.16l-.36.09l-.32.05l-.24.02l-.16-.01h-8.22v.82h5.84l.01 2.76l.02.36l-.05.34l-.11.31l-.17.29l-.25.25l-.31.24l-.38.2l-.44.17l-.51.15l-.58.13l-.64.09l-.71.07l-.77.04l-.84.01l-1.27-.04l-1.07-.14l-.9-.2l-.73-.25l-.59-.3l-.45-.33l-.34-.34l-.25-.34l-.16-.33l-.1-.3l-.04-.25l-.02-.2l.01-.13v-5.34l.05-.64l.13-.54l.21-.46l.26-.38l.3-.32l.33-.24l.35-.2l.35-.14l.33-.1l.3-.06l.26-.04l.21-.02l.13-.01h5.84l.69-.05l.59-.14l.5-.21l.41-.28l.33-.32l.27-.35l.2-.36l.15-.36l.1-.35l.07-.32l.04-.28l.02-.21V6.07h2.09l.14.01zm-6.47 14.25l-.23.33l-.08.41l.08.41l.23.33l.33.23l.41.08l.41-.08l.33-.23l.23-.33l.08-.41l-.08-.41l-.23-.33l-.33-.23l-.41-.08l-.41.08z"/>
</svg>
  <text x="909" y="203" class="node-title">FastAPI routes</text>
  <text x="909" y="225" class="node-line">/content/edit/stream</text>
  <text x="909" y="243" class="node-line">/prepublish/edit/stream</text>
  <text x="909" y="261" class="node-line">/calibrate</text>
  <rect x="885" y="295" width="290" height="125" rx="10" class="node orange"/>
  <svg x="909" y="313" width="26" height="26" viewBox="0 0 24 24" aria-hidden="true" focusable="false">
<path fill="#1C3C3C" d="M13.796 0a6.93 6.93 0 0 0-4.91 2.019L5.451 5.455l3.273 3.27l3.432-3.432a2.284 2.284 0 0 1 3.277 0a2.28 2.28 0 0 1 0 3.275L12 12.001l3.273 3.273l3.433-3.435c2.692-2.692 2.692-7.127 0-9.82A6.92 6.92 0 0 0 13.796 0m-5.07 8.728l-3.433 3.434c-2.692 2.693-2.692 7.126 0 9.819A6.92 6.92 0 0 0 10.203 24a6.93 6.93 0 0 0 4.911-2.02l3.432-3.432l-3.271-3.272l-3.433 3.433a2.284 2.284 0 0 1-3.277 0a2.28 2.28 0 0 1 0-3.276L12 12z"/>
</svg>
  <text x="909" y="353" class="node-title">Prompt builders</text>
  <text x="909" y="375" class="node-line">System instructions</text>
  <text x="909" y="393" class="node-line">Conversation history</text>
  <text x="909" y="411" class="node-line">Format preservation</text>
  <rect x="885" y="455" width="290" height="125" rx="10" class="node gray"/>
  <svg x="909" y="473" width="26" height="26" viewBox="0 0 24 24" aria-hidden="true" focusable="false">
<path fill="#111827" d="M22.282 9.821a6 6 0 0 0-.516-4.91a6.05 6.05 0 0 0-6.51-2.9A6.065 6.065 0 0 0 4.981 4.18a6 6 0 0 0-3.998 2.9a6.05 6.05 0 0 0 .743 7.097a5.98 5.98 0 0 0 .51 4.911a6.05 6.05 0 0 0 6.515 2.9A6 6 0 0 0 13.26 24a6.06 6.06 0 0 0 5.772-4.206a6 6 0 0 0 3.997-2.9a6.06 6.06 0 0 0-.747-7.073M13.26 22.43a4.48 4.48 0 0 1-2.876-1.04l.141-.081l4.779-2.758a.8.8 0 0 0 .392-.681v-6.737l2.02 1.168a.07.07 0 0 1 .038.052v5.583a4.504 4.504 0 0 1-4.494 4.494M3.6 18.304a4.47 4.47 0 0 1-.535-3.014l.142.085l4.783 2.759a.77.77 0 0 0 .78 0l5.843-3.369v2.332a.08.08 0 0 1-.033.062L9.74 19.95a4.5 4.5 0 0 1-6.14-1.646M2.34 7.896a4.5 4.5 0 0 1 2.366-1.973V11.6a.77.77 0 0 0 .388.677l5.815 3.354l-2.02 1.168a.08.08 0 0 1-.071 0l-4.83-2.786A4.504 4.504 0 0 1 2.34 7.872zm16.597 3.855l-5.833-3.387L15.119 7.2a.08.08 0 0 1 .071 0l4.83 2.791a4.494 4.494 0 0 1-.676 8.105v-5.678a.79.79 0 0 0-.407-.667m2.01-3.023l-.141-.085l-4.774-2.782a.78.78 0 0 0-.785 0L9.409 9.23V6.897a.07.07 0 0 1 .028-.061l4.83-2.787a4.5 4.5 0 0 1 6.68 4.66zm-12.64 4.135l-2.02-1.164a.08.08 0 0 1-.038-.057V6.075a4.5 4.5 0 0 1 7.375-3.453l-.142.08L8.704 5.46a.8.8 0 0 0-.393.681zm1.097-2.365l2.602-1.5l2.607 1.5v2.999l-2.597 1.5l-2.607-1.5Z"/>
</svg>
  <text x="909" y="513" class="node-title">ChatOpenAI provider</text>
  <text x="909" y="535" class="node-line">Provider URL, model, key</text>
  <text x="909" y="553" class="node-line">astream chunks</text>
  <text x="909" y="571" class="node-line">Markdown/plain text output</text>
  <path d="M365 220 L495 230" class="ai"/>
  <rect x="382" y="196" width="118" height="22" rx="11" fill="#ffffff" opacity="0.96"/>
  <text x="392" y="212" class="edge-label">stream request</text>
  <path d="M625 310 L625 345" class="request"/>
  <rect x="640" y="304" width="111" height="22" rx="11" fill="#ffffff" opacity="0.96"/>
  <text x="650" y="320" class="edge-label">backend route</text>
  <path d="M755 395 L885 195" class="ai"/>
  <rect x="784" y="270" width="69" height="22" rx="11" fill="#ffffff" opacity="0.96"/>
  <text x="794" y="286" class="edge-label">forward</text>
  <path d="M1030 270 L1030 295" class="request"/>
  <rect x="1045" y="266" width="76" height="22" rx="11" fill="#ffffff" opacity="0.96"/>
  <text x="1055" y="282" class="edge-label">messages</text>
  <path d="M1030 420 L1030 455" class="ai"/>
  <rect x="1045" y="426" width="76" height="22" rx="11" fill="#ffffff" opacity="0.96"/>
  <text x="1055" y="442" class="edge-label">LLM call</text>
  <path d="M885 507 L755 397" class="ai"/>
  <rect x="800" y="458" width="62" height="22" rx="11" fill="#ffffff" opacity="0.96"/>
  <text x="810" y="474" class="edge-label">chunks</text>
  <path d="M495 395 L365 220" class="ai"/>
  <rect x="392" y="320" width="76" height="22" rx="11" fill="#ffffff" opacity="0.96"/>
  <text x="402" y="336" class="edge-label">proposal</text>
  <path d="M220 275 L220 330" class="data"/>
  <rect x="238" y="292" width="62" height="22" rx="11" fill="#ffffff" opacity="0.96"/>
  <text x="248" y="308" class="edge-label">review</text>
</svg>
