<svg xmlns="http://www.w3.org/2000/svg" xmlns:xlink="http://www.w3.org/1999/xlink" viewBox="0 0 1280 720" width="1280" height="720" role="img">

  <style>
    text { font-family: 'Helvetica Neue', Helvetica, Arial, sans-serif; fill: #111827; }
    .title { font-size: 24px; font-weight: 700; }
    .subtitle { font-size: 13px; fill: #6b7280; }
    .section-title { font-size: 14px; font-weight: 700; }
    .node-title { font-size: 14px; font-weight: 700; }
    .node-line { font-size: 12px; fill: #6b7280; }
    .edge-label { font-size: 11px; font-weight: 600; fill: #374151; }
    .section { fill: #ffffff; stroke: #d1d5db; stroke-width: 1.4; stroke-dasharray: 7 5; }
    .node { fill: #ffffff; stroke: #d1d5db; stroke-width: 1.5; }
    .blue { fill: #eff6ff; stroke: #bfdbfe; }
    .green { fill: #f0fdf4; stroke: #bbf7d0; }
    .purple { fill: #faf5ff; stroke: #e9d5ff; }
    .orange { fill: #fff7ed; stroke: #fed7aa; }
    .teal { fill: #f0fdfa; stroke: #99f6e4; }
    .red { fill: #fef2f2; stroke: #fecaca; }
    .gray { fill: #f9fafb; stroke: #d1d5db; }
    .request { stroke: #2563eb; stroke-width: 2.2; fill: none; marker-end: url(#arrow-blue); }
    .data { stroke: #16a34a; stroke-width: 2.2; fill: none; marker-end: url(#arrow-green); }
    .async { stroke: #dc2626; stroke-width: 2.2; fill: none; stroke-dasharray: 7 5; marker-end: url(#arrow-red); }
    .ai { stroke: #9333ea; stroke-width: 2.2; fill: none; marker-end: url(#arrow-purple); }
    .browser { stroke: #ea580c; stroke-width: 2.2; fill: none; marker-end: url(#arrow-orange); }
    .muted { stroke: #9ca3af; stroke-width: 1.8; fill: none; marker-end: url(#arrow-gray); }
  </style>


  <defs>
    <marker id="arrow-blue" markerWidth="10" markerHeight="7" refX="9" refY="3.5" orient="auto"><polygon points="0 0, 10 3.5, 0 7" fill="#2563eb"/></marker>
    <marker id="arrow-green" markerWidth="10" markerHeight="7" refX="9" refY="3.5" orient="auto"><polygon points="0 0, 10 3.5, 0 7" fill="#16a34a"/></marker>
    <marker id="arrow-red" markerWidth="10" markerHeight="7" refX="9" refY="3.5" orient="auto"><polygon points="0 0, 10 3.5, 0 7" fill="#dc2626"/></marker>
    <marker id="arrow-purple" markerWidth="10" markerHeight="7" refX="9" refY="3.5" orient="auto"><polygon points="0 0, 10 3.5, 0 7" fill="#9333ea"/></marker>
    <marker id="arrow-orange" markerWidth="10" markerHeight="7" refX="9" refY="3.5" orient="auto"><polygon points="0 0, 10 3.5, 0 7" fill="#ea580c"/></marker>
    <marker id="arrow-gray" markerWidth="10" markerHeight="7" refX="9" refY="3.5" orient="auto"><polygon points="0 0, 10 3.5, 0 7" fill="#9ca3af"/></marker>
  </defs>

  <rect width="1280" height="720" fill="#ffffff"/>
  <text x="40" y="44" class="title">Backend Core Module Design</text>
  <text x="40" y="68" class="subtitle">Echo bootstrapping, handlers, services, worker queues, and persistence responsibilities.</text>
  <rect x="40" y="105" width="300" height="545" rx="14" class="section"/>
  <text x="62" y="135" class="section-title">Bootstrap and routing</text>
  <rect x="380" y="105" width="300" height="545" rx="14" class="section"/>
  <text x="402" y="135" class="section-title">HTTP handlers</text>
  <rect x="720" y="105" width="300" height="545" rx="14" class="section"/>
  <text x="742" y="135" class="section-title">Domain services</text>
  <rect x="1060" y="105" width="180" height="545" rx="14" class="section"/>
  <text x="1082" y="135" class="section-title">Stores</text>
  <rect x="70" y="155" width="240" height="130" rx="10" class="node blue"/>
  <svg x="94" y="173" width="26" height="26" viewBox="0 0 24 24" aria-hidden="true" focusable="false">
<path fill="#00ADD8" d="M1.811 10.231c-.047 0-.058-.023-.035-.059l.246-.315c.023-.035.081-.058.128-.058h4.172c.046 0 .058.035.035.07l-.199.303c-.023.036-.082.07-.117.07zM.047 11.306c-.047 0-.059-.023-.035-.058l.245-.316c.023-.035.082-.058.129-.058h5.328c.047 0 .07.035.058.07l-.093.28c-.012.047-.058.07-.105.07zm2.828 1.075c-.047 0-.059-.035-.035-.07l.163-.292c.023-.035.07-.07.117-.07h2.337c.047 0 .07.035.07.082l-.023.28c0 .047-.047.082-.082.082zm12.129-2.36c-.736.187-1.239.327-1.963.514c-.176.046-.187.058-.34-.117c-.174-.199-.303-.327-.548-.444c-.737-.362-1.45-.257-2.115.175c-.795.514-1.204 1.274-1.192 2.22c.011.935.654 1.706 1.577 1.835c.795.105 1.46-.175 1.987-.77c.105-.13.198-.27.315-.434H10.47c-.245 0-.304-.152-.222-.35c.152-.362.432-.97.596-1.274a.32.32 0 0 1 .292-.187h4.253c-.023.316-.023.631-.07.947a5 5 0 0 1-.958 2.29c-.841 1.11-1.94 1.8-3.33 1.986c-1.145.152-2.209-.07-3.143-.77c-.865-.655-1.356-1.52-1.484-2.595c-.152-1.274.222-2.419.993-3.424c.83-1.086 1.928-1.776 3.272-2.02c1.098-.2 2.15-.07 3.096.571c.62.41 1.063.97 1.356 1.648c.07.105.023.164-.117.2m3.868 6.461c-1.064-.024-2.034-.328-2.852-1.029a3.67 3.67 0 0 1-1.262-2.255c-.21-1.32.152-2.489.947-3.529c.853-1.122 1.881-1.706 3.272-1.95c1.192-.21 2.314-.095 3.33.595c.923.63 1.496 1.484 1.648 2.605c.198 1.578-.257 2.863-1.344 3.962c-.771.783-1.718 1.273-2.805 1.495c-.315.06-.63.07-.934.106m2.78-4.72c-.011-.153-.011-.27-.034-.387c-.21-1.157-1.274-1.81-2.384-1.554c-1.087.245-1.788.935-2.045 2.033c-.21.912.234 1.835 1.075 2.21c.643.28 1.285.244 1.905-.07c.923-.48 1.425-1.228 1.484-2.233z"/>
</svg>
  <text x="94" y="213" class="node-title">cmd/api main</text>
  <text x="94" y="235" class="node-line">Load env and DB</text>
  <text x="94" y="253" class="node-line">Wire services and handlers</text>
  <text x="94" y="271" class="node-line">Start Echo server</text>
  <rect x="70" y="300" width="240" height="110" rx="10" class="node teal"/>
  <text x="94" y="331" class="node-title">Echo router</text>
  <text x="94" y="353" class="node-line">Public routes</text>
  <text x="94" y="371" class="node-line">Admin dashboard group</text>
  <text x="94" y="389" class="node-line">JWT user dashboard group</text>
  <rect x="410" y="150" width="240" height="110" rx="10" class="node green"/>
  <text x="434" y="181" class="node-title">UserDashboardHandler</text>
  <text x="434" y="203" class="node-line">Project CRUD</text>
  <text x="434" y="221" class="node-line">Prepublish endpoints</text>
  <text x="434" y="239" class="node-line">AI stream proxy</text>
  <rect x="410" y="300" width="240" height="100" rx="10" class="node orange"/>
  <text x="434" y="331" class="node-title">Account handlers</text>
  <text x="434" y="353" class="node-line">WeChat credentials</text>
  <text x="434" y="371" class="node-line">X OAuth2 callback</text>
  <text x="434" y="389" class="node-line">Browser session routes</text>
  <rect x="410" y="440" width="240" height="100" rx="10" class="node purple"/>
  <text x="434" y="471" class="node-title">BrowserSessionHandler</text>
  <text x="434" y="493" class="node-line">Start, complete, cancel</text>
  <text x="434" y="511" class="node-line">HTTP and WebSocket proxy</text>
  <text x="434" y="529" class="node-line">One-time stream token</text>
  <rect x="750" y="150" width="240" height="120" rx="10" class="node green"/>
  <text x="774" y="181" class="node-title">DashboardService</text>
  <text x="774" y="203" class="node-line">Ownership checks</text>
  <text x="774" y="221" class="node-line">Projects and publications</text>
  <text x="774" y="239" class="node-line">Prepublish sync</text>
  <text x="774" y="257" class="node-line">Publish orchestration</text>
  <rect x="750" y="315" width="240" height="130" rx="10" class="node red"/>
  <svg x="774" y="333" width="26" height="26" viewBox="0 0 128 128" aria-hidden="true" focusable="false">
<path d="M0 0h128v128H0z" fill="none" />
	<path fill="#a41e11" d="M121.8 93.1c-6.7 3.5-41.4 17.7-48.8 21.6s-11.5 3.8-17.3 1S13 98.1 6.3 94.9c-3.3-1.6-5-2.9-5-4.2V78s48-10.5 55.8-13.2c7.8-2.8 10.4-2.9 17-.5s46.1 9.5 52.6 11.9v12.5c0 1.3-1.5 2.7-4.9 4.4" />
	<path fill="#d82c20" d="M121.8 80.5C115.1 84 80.4 98.2 73 102.1s-11.5 3.8-17.3 1S13 85.4 6.3 82.2C-.3 79-.5 76.8 6 74.3c6.5-2.6 43.2-17 51-19.7c7.8-2.8 10.4-2.9 17-.5s41.1 16.1 47.6 18.5c6.7 2.4 6.9 4.4.2 7.9" />
	<path fill="#a41e11" d="M121.8 72.5C115.1 76 80.4 90.2 73 94.1c-7.4 3.8-11.5 3.8-17.3 1S13 77.4 6.3 74.2c-3.3-1.6-5-2.9-5-4.2V57.3s48-10.5 55.8-13.2c7.8-2.8 10.4-2.9 17-.5s46.1 9.5 52.6 11.9V68c0 1.3-1.5 2.7-4.9 4.5" />
	<path fill="#d82c20" d="M121.8 59.8c-6.7 3.5-41.4 17.7-48.8 21.6c-7.4 3.8-11.5 3.8-17.3 1S13 64.7 6.3 61.5s-6.8-5.4-.3-7.9c6.5-2.6 43.2-17 51-19.7c7.8-2.8 10.4-2.9 17-.5s41.1 16.1 47.6 18.5c6.7 2.4 6.9 4.4.2 7.9" />
	<path fill="#a41e11" d="M121.8 51c-6.7 3.5-41.4 17.7-48.8 21.6c-7.4 3.8-11.5 3.8-17.3 1C49.9 70.9 13 56 6.3 52.8c-3.3-1.6-5.1-2.9-5.1-4.2V35.9s48-10.5 55.8-13.2c7.8-2.8 10.4-2.9 17-.5s46.1 9.5 52.6 11.9v12.5c.1 1.3-1.4 2.6-4.8 4.4" />
	<path fill="#d82c20" d="M121.8 38.3C115.1 41.8 80.4 56 73 59.9c-7.4 3.8-11.5 3.8-17.3 1S13 43.3 6.3 40.1s-6.8-5.4-.3-7.9c6.5-2.6 43.2-17 51-19.7c7.8-2.8 10.4-2.9 17-.5s41.1 16.1 47.6 18.5c6.7 2.4 6.9 4.4.2 7.8" />
	<path fill="#fff" d="m80.4 26.1l-10.8 1.2l-2.5 5.8l-3.9-6.5l-12.5-1.1l9.3-3.4l-2.8-5.2l8.8 3.4l8.2-2.7L72 23zM66.5 54.5l-20.3-8.4l29.1-4.4z" />
	<ellipse cx="38.4" cy="35.4" fill="#fff" rx="15.5" ry="6" />
	<path fill="#7a0c00" d="m93.3 27.7l17.2 6.8l-17.2 6.8z" />
	<path fill="#ad2115" d="m74.3 35.3l19-7.6v13.6l-1.9.8z" />
</svg>
  <text x="774" y="373" class="node-title">Publish worker loop</text>
  <text x="774" y="395" class="node-line">Redis BLPOP jobs</text>
  <text x="774" y="413" class="node-line">Lock refresh / release</text>
  <text x="774" y="431" class="node-line">Status and retry updates</text>
  <rect x="750" y="465" width="240" height="105" rx="10" class="node purple"/>
  <text x="774" y="496" class="node-title">BrowserSessionService</text>
  <text x="774" y="518" class="node-line">Session lifecycle</text>
  <text x="774" y="536" class="node-line">Worker client calls</text>
  <text x="774" y="554" class="node-line">CookieStore boundary</text>
  <rect x="1085" y="165" width="130" height="130" rx="10" class="node green"/>
  <svg x="1109" y="183" width="26" height="26" viewBox="0 0 24 24" aria-hidden="true" focusable="false">
<path fill="#4169E1" d="M23.56 14.723a.5.5 0 0 0-.057-.12q-.21-.395-1.007-.231c-1.654.34-2.294.13-2.526-.02c1.342-2.048 2.445-4.522 3.041-6.83c.272-1.05.798-3.523.122-4.73a1.6 1.6 0 0 0-.15-.236C21.693.91 19.8.025 17.51.001c-1.495-.016-2.77.346-3.116.479a10 10 0 0 0-.516-.082a8 8 0 0 0-1.312-.127c-1.182-.019-2.203.264-3.05.84C8.66.79 4.729-.534 2.296 1.19C.935 2.153.309 3.873.43 6.304c.041.818.507 3.334 1.243 5.744q.69 2.26 1.433 3.582q.83 1.493 1.714 1.79c.448.148 1.133.143 1.858-.729a56 56 0 0 1 1.945-2.206c.435.235.906.362 1.39.377v.004a11 11 0 0 0-.247.305c-.339.43-.41.52-1.5.745c-.31.064-1.134.233-1.146.811a.6.6 0 0 0 .091.327c.227.423.922.61 1.015.633c1.335.333 2.505.092 3.372-.679c-.017 2.231.077 4.418.345 5.088c.221.553.762 1.904 2.47 1.904q.375.001.829-.094c1.782-.382 2.556-1.17 2.855-2.906c.15-.87.402-2.875.539-4.101c.017-.07.036-.12.057-.136c0 0 .07-.048.427.03l.044.007l.254.022l.015.001c.847.039 1.911-.142 2.531-.43c.644-.3 1.806-1.033 1.595-1.67M2.37 11.876c-.744-2.435-1.178-4.885-1.212-5.571c-.109-2.172.417-3.683 1.562-4.493c1.837-1.299 4.84-.54 6.108-.13l-.01.01C6.795 3.734 6.843 7.226 6.85 7.44c0 .082.006.199.016.36c.034.586.1 1.68-.074 2.918c-.16 1.15.194 2.276.973 3.089q.12.126.252.237c-.347.371-1.1 1.193-1.903 2.158c-.568.682-.96.551-1.088.508c-.392-.13-.813-.587-1.239-1.322c-.48-.839-.963-2.032-1.415-3.512m6.007 5.088a1.6 1.6 0 0 1-.432-.178c.089-.039.237-.09.483-.14c1.284-.265 1.482-.451 1.915-1a8 8 0 0 1 .367-.443a.4.4 0 0 0 .074-.13c.17-.151.272-.11.436-.042c.156.065.308.26.37.475c.03.102.062.295-.045.445c-.904 1.266-2.222 1.25-3.168 1.013m2.094-3.988l-.052.14c-.133.357-.257.689-.334 1.004c-.667-.002-1.317-.288-1.81-.803c-.628-.655-.913-1.566-.783-2.5c.183-1.308.116-2.447.08-3.059l-.013-.22c.296-.262 1.666-.996 2.643-.772c.446.102.718.406.83.928c.585 2.704.078 3.83-.33 4.736a9 9 0 0 0-.23.546m7.364 4.572q-.024.266-.062.596l-.146.438a.4.4 0 0 0-.018.108c-.006.475-.054.649-.115.87a4.8 4.8 0 0 0-.18 1.057c-.11 1.414-.878 2.227-2.417 2.556c-1.515.325-1.784-.496-2.02-1.221a7 7 0 0 0-.078-.227c-.215-.586-.19-1.412-.157-2.555c.016-.561-.025-1.901-.33-2.646q.006-.44.019-.892a.4.4 0 0 0-.016-.113a2 2 0 0 0-.044-.208c-.122-.428-.42-.786-.78-.935c-.142-.059-.403-.167-.717-.087c.067-.276.183-.587.309-.925l.053-.142c.06-.16.134-.325.213-.5c.426-.948 1.01-2.246.376-5.178c-.237-1.098-1.03-1.634-2.232-1.51c-.72.075-1.38.366-1.709.532a6 6 0 0 0-.196.104c.092-1.106.439-3.174 1.736-4.482a4 4 0 0 1 .303-.276a.35.35 0 0 0 .145-.064c.752-.57 1.695-.85 2.802-.833q.616.01 1.174.081c1.94.355 3.244 1.447 4.036 2.383c.814.962 1.255 1.931 1.431 2.454c-1.323-.134-2.223.127-2.68.78c-.992 1.418.544 4.172 1.282 5.496c.135.242.252.452.289.54c.24.583.551.972.778 1.256c.07.087.138.171.189.245c-.4.116-1.12.383-1.055 1.717a35 35 0 0 1-.084.815c-.046.208-.07.46-.1.766m.89-1.621c-.04-.832.27-.919.597-1.01l.135-.041a1 1 0 0 0 .134.103c.57.376 1.583.421 3.007.134c-.202.177-.519.4-.953.601c-.41.19-1.096.333-1.747.364c-.72.034-1.086-.08-1.173-.151m.57-9.271a7 7 0 0 1-.105 1.001c-.055.358-.112.728-.127 1.177c-.014.436.04.89.093 1.33c.107.887.216 1.8-.207 2.701a4 4 0 0 1-.188-.385a8 8 0 0 0-.325-.617c-.616-1.104-2.057-3.69-1.32-4.744c.38-.543 1.342-.566 2.179-.463m.228 7.013l-.085-.107l-.035-.044c.726-1.2.584-2.387.457-3.439c-.052-.432-.1-.84-.088-1.222c.013-.407.066-.755.118-1.092c.064-.415.13-.844.111-1.35a.6.6 0 0 0 .012-.19c-.046-.486-.6-1.938-1.73-3.253a7.8 7.8 0 0 0-2.688-2.04A9.3 9.3 0 0 1 17.62.746c2.052.046 3.675.814 4.824 2.283a1 1 0 0 1 .067.1c.723 1.356-.276 6.275-2.987 10.54m-8.816-6.116c-.025.18-.31.423-.621.423l-.081-.006a.8.8 0 0 1-.506-.315c-.046-.06-.12-.178-.106-.285a.22.22 0 0 1 .093-.149c.118-.089.352-.122.61-.086c.316.044.642.193.61.418m7.93-.411c.011.08-.049.2-.153.31a.72.72 0 0 1-.408.223l-.075.005c-.293 0-.541-.234-.56-.371c-.024-.177.264-.31.56-.352c.298-.042.612.009.636.185"/>
</svg>
  <text x="1109" y="223" class="node-title">PostgreSQL</text>
  <text x="1109" y="245" class="node-line">GORM models</text>
  <text x="1109" y="263" class="node-line">Migrations</text>
  <text x="1109" y="281" class="node-line">Seed data</text>
  <rect x="1085" y="360" width="130" height="130" rx="10" class="node red"/>
  <svg x="1109" y="378" width="26" height="26" viewBox="0 0 128 128" aria-hidden="true" focusable="false">
<path d="M0 0h128v128H0z" fill="none" />
	<path fill="#a41e11" d="M121.8 93.1c-6.7 3.5-41.4 17.7-48.8 21.6s-11.5 3.8-17.3 1S13 98.1 6.3 94.9c-3.3-1.6-5-2.9-5-4.2V78s48-10.5 55.8-13.2c7.8-2.8 10.4-2.9 17-.5s46.1 9.5 52.6 11.9v12.5c0 1.3-1.5 2.7-4.9 4.4" />
	<path fill="#d82c20" d="M121.8 80.5C115.1 84 80.4 98.2 73 102.1s-11.5 3.8-17.3 1S13 85.4 6.3 82.2C-.3 79-.5 76.8 6 74.3c6.5-2.6 43.2-17 51-19.7c7.8-2.8 10.4-2.9 17-.5s41.1 16.1 47.6 18.5c6.7 2.4 6.9 4.4.2 7.9" />
	<path fill="#a41e11" d="M121.8 72.5C115.1 76 80.4 90.2 73 94.1c-7.4 3.8-11.5 3.8-17.3 1S13 77.4 6.3 74.2c-3.3-1.6-5-2.9-5-4.2V57.3s48-10.5 55.8-13.2c7.8-2.8 10.4-2.9 17-.5s46.1 9.5 52.6 11.9V68c0 1.3-1.5 2.7-4.9 4.5" />
	<path fill="#d82c20" d="M121.8 59.8c-6.7 3.5-41.4 17.7-48.8 21.6c-7.4 3.8-11.5 3.8-17.3 1S13 64.7 6.3 61.5s-6.8-5.4-.3-7.9c6.5-2.6 43.2-17 51-19.7c7.8-2.8 10.4-2.9 17-.5s41.1 16.1 47.6 18.5c6.7 2.4 6.9 4.4.2 7.9" />
	<path fill="#a41e11" d="M121.8 51c-6.7 3.5-41.4 17.7-48.8 21.6c-7.4 3.8-11.5 3.8-17.3 1C49.9 70.9 13 56 6.3 52.8c-3.3-1.6-5.1-2.9-5.1-4.2V35.9s48-10.5 55.8-13.2c7.8-2.8 10.4-2.9 17-.5s46.1 9.5 52.6 11.9v12.5c.1 1.3-1.4 2.6-4.8 4.4" />
	<path fill="#d82c20" d="M121.8 38.3C115.1 41.8 80.4 56 73 59.9c-7.4 3.8-11.5 3.8-17.3 1S13 43.3 6.3 40.1s-6.8-5.4-.3-7.9c6.5-2.6 43.2-17 51-19.7c7.8-2.8 10.4-2.9 17-.5s41.1 16.1 47.6 18.5c6.7 2.4 6.9 4.4.2 7.8" />
	<path fill="#fff" d="m80.4 26.1l-10.8 1.2l-2.5 5.8l-3.9-6.5l-12.5-1.1l9.3-3.4l-2.8-5.2l8.8 3.4l8.2-2.7L72 23zM66.5 54.5l-20.3-8.4l29.1-4.4z" />
	<ellipse cx="38.4" cy="35.4" fill="#fff" rx="15.5" ry="6" />
	<path fill="#7a0c00" d="m93.3 27.7l17.2 6.8l-17.2 6.8z" />
	<path fill="#ad2115" d="m74.3 35.3l19-7.6v13.6l-1.9.8z" />
</svg>
  <text x="1109" y="418" class="node-title">Redis</text>
  <text x="1109" y="440" class="node-line">Publish queue</text>
  <text x="1109" y="458" class="node-line">Locks</text>
  <text x="1109" y="476" class="node-line">OAuth2 state</text>
  <path d="M310 205 L410 205" class="request"/>
  <rect x="334" y="178" width="58" height="22" rx="11" fill="#ffffff" opacity="0.96"/>
  <text x="344" y="194" class="edge-label">HTTP</text>
  <path d="M310 355 L410 355" class="request"/>
  <rect x="326" y="330" width="97" height="22" rx="11" fill="#ffffff" opacity="0.96"/>
  <text x="336" y="346" class="edge-label">route group</text>
  <path d="M650 205 L750 205" class="request"/>
  <rect x="662" y="178" width="111" height="22" rx="11" fill="#ffffff" opacity="0.96"/>
  <text x="672" y="194" class="edge-label">service calls</text>
  <path d="M650 350 L750 505" class="browser"/>
  <rect x="654" y="408" width="97" height="22" rx="11" fill="#ffffff" opacity="0.96"/>
  <text x="664" y="424" class="edge-label">session ops</text>
  <path d="M990 210 L1085 220" class="data"/>
  <rect x="1000" y="194" width="62" height="22" rx="11" fill="#ffffff" opacity="0.96"/>
  <text x="1010" y="210" class="edge-label">models</text>
  <path d="M990 368 L1085 418" class="async"/>
  <rect x="1000" y="370" width="90" height="22" rx="11" fill="#ffffff" opacity="0.96"/>
  <text x="1010" y="386" class="edge-label">queue/lock</text>
  <path d="M870 270 L870 315" class="async"/>
  <rect x="890" y="284" width="62" height="22" rx="11" fill="#ffffff" opacity="0.96"/>
  <text x="900" y="300" class="edge-label">worker</text>
</svg>
