<svg xmlns="http://www.w3.org/2000/svg" xmlns:xlink="http://www.w3.org/1999/xlink" viewBox="0 0 1280 720" width="1280" height="720" role="img">

  <style>
    text { font-family: 'Helvetica Neue', Helvetica, Arial, sans-serif; fill: #111827; }
    .title { font-size: 24px; font-weight: 700; }
    .subtitle { font-size: 13px; fill: #6b7280; }
    .section-title { font-size: 14px; font-weight: 700; }
    .node-title { font-size: 14px; font-weight: 700; }
    .node-line { font-size: 12px; fill: #6b7280; }
    .edge-label { font-size: 11px; font-weight: 600; fill: #374151; }
    .section { fill: #ffffff; stroke: #d1d5db; stroke-width: 1.4; stroke-dasharray: 7 5; }
    .node { fill: #ffffff; stroke: #d1d5db; stroke-width: 1.5; }
    .blue { fill: #eff6ff; stroke: #bfdbfe; }
    .green { fill: #f0fdf4; stroke: #bbf7d0; }
    .purple { fill: #faf5ff; stroke: #e9d5ff; }
    .orange { fill: #fff7ed; stroke: #fed7aa; }
    .teal { fill: #f0fdfa; stroke: #99f6e4; }
    .red { fill: #fef2f2; stroke: #fecaca; }
    .gray { fill: #f9fafb; stroke: #d1d5db; }
    .request { stroke: #2563eb; stroke-width: 2.2; fill: none; marker-end: url(#arrow-blue); }
    .data { stroke: #16a34a; stroke-width: 2.2; fill: none; marker-end: url(#arrow-green); }
    .async { stroke: #dc2626; stroke-width: 2.2; fill: none; stroke-dasharray: 7 5; marker-end: url(#arrow-red); }
    .ai { stroke: #9333ea; stroke-width: 2.2; fill: none; marker-end: url(#arrow-purple); }
    .browser { stroke: #ea580c; stroke-width: 2.2; fill: none; marker-end: url(#arrow-orange); }
    .muted { stroke: #9ca3af; stroke-width: 1.8; fill: none; marker-end: url(#arrow-gray); }
  </style>


  <defs>
    <marker id="arrow-blue" markerWidth="10" markerHeight="7" refX="9" refY="3.5" orient="auto"><polygon points="0 0, 10 3.5, 0 7" fill="#2563eb"/></marker>
    <marker id="arrow-green" markerWidth="10" markerHeight="7" refX="9" refY="3.5" orient="auto"><polygon points="0 0, 10 3.5, 0 7" fill="#16a34a"/></marker>
    <marker id="arrow-red" markerWidth="10" markerHeight="7" refX="9" refY="3.5" orient="auto"><polygon points="0 0, 10 3.5, 0 7" fill="#dc2626"/></marker>
    <marker id="arrow-purple" markerWidth="10" markerHeight="7" refX="9" refY="3.5" orient="auto"><polygon points="0 0, 10 3.5, 0 7" fill="#9333ea"/></marker>
    <marker id="arrow-orange" markerWidth="10" markerHeight="7" refX="9" refY="3.5" orient="auto"><polygon points="0 0, 10 3.5, 0 7" fill="#ea580c"/></marker>
    <marker id="arrow-gray" markerWidth="10" markerHeight="7" refX="9" refY="3.5" orient="auto"><polygon points="0 0, 10 3.5, 0 7" fill="#9ca3af"/></marker>
  </defs>

  <rect width="1280" height="720" fill="#ffffff"/>
  <text x="40" y="44" class="title">Frontend Module Design</text>
  <text x="40" y="68" class="subtitle">Routes, controller state, editor widgets, and dashboard API client boundaries.</text>
  <rect x="40" y="105" width="360" height="545" rx="14" class="section"/>
  <text x="62" y="135" class="section-title">Routes and pages</text>
  <rect x="460" y="105" width="360" height="545" rx="14" class="section"/>
  <text x="482" y="135" class="section-title">State and API boundary</text>
  <rect x="880" y="105" width="360" height="545" rx="14" class="section"/>
  <text x="902" y="135" class="section-title">Editor and assistant widgets</text>
  <rect x="75" y="155" width="290" height="115" rx="10" class="node blue"/>
  <svg x="99" y="173" width="26" height="26" viewBox="0 0 24 24" aria-hidden="true" focusable="false">
<path fill="#000000" d="M18.665 21.978A11.94 11.94 0 0 1 12 24C5.377 24 0 18.623 0 12S5.377 0 12 0s12 5.377 12 12c0 3.583-1.574 6.801-4.067 9.001L9.219 7.2H7.2v9.596h1.615V9.251zm-3.332-8.533l1.6 2.061V7.2h-1.6z"/>
</svg>
  <svg x="135" y="173" width="26" height="26" viewBox="0 0 24 24" aria-hidden="true" focusable="false">
<path fill="#61DAFB" d="M14.23 12.004a2.236 2.236 0 0 1-2.235 2.236a2.236 2.236 0 0 1-2.236-2.236a2.236 2.236 0 0 1 2.235-2.236a2.236 2.236 0 0 1 2.236 2.236m2.648-10.69c-1.346 0-3.107.96-4.888 2.622c-1.78-1.653-3.542-2.602-4.887-2.602c-.41 0-.783.093-1.106.278c-1.375.793-1.683 3.264-.973 6.365C1.98 8.917 0 10.42 0 12.004c0 1.59 1.99 3.097 5.043 4.03c-.704 3.113-.39 5.588.988 6.38c.32.187.69.275 1.102.275c1.345 0 3.107-.96 4.888-2.624c1.78 1.654 3.542 2.603 4.887 2.603c.41 0 .783-.09 1.106-.275c1.374-.792 1.683-3.263.973-6.365C22.02 15.096 24 13.59 24 12.004c0-1.59-1.99-3.097-5.043-4.032c.704-3.11.39-5.587-.988-6.38a2.17 2.17 0 0 0-1.092-.278zm-.005 1.09v.006c.225 0 .406.044.558.127c.666.382.955 1.835.73 3.704c-.054.46-.142.945-.25 1.44a23.5 23.5 0 0 0-3.107-.534A24 24 0 0 0 12.769 4.7c1.592-1.48 3.087-2.292 4.105-2.295zm-9.77.02c1.012 0 2.514.808 4.11 2.28c-.686.72-1.37 1.537-2.02 2.442a23 23 0 0 0-3.113.538a15 15 0 0 1-.254-1.42c-.23-1.868.054-3.32.714-3.707c.19-.09.4-.127.563-.132zm4.882 3.05q.684.704 1.36 1.564c-.44-.02-.89-.034-1.345-.034q-.691-.001-1.36.034c.44-.572.895-1.096 1.345-1.565zM12 8.1c.74 0 1.477.034 2.202.093q.61.874 1.183 1.86q.557.961 1.018 1.946c-.308.655-.646 1.31-1.013 1.95c-.38.66-.773 1.288-1.18 1.87a25.6 25.6 0 0 1-4.412.005a27 27 0 0 1-1.183-1.86q-.557-.961-1.018-1.946a25 25 0 0 1 1.013-1.954c.38-.66.773-1.286 1.18-1.868A25 25 0 0 1 12 8.098zm-3.635.254c-.24.377-.48.763-.704 1.16q-.336.585-.635 1.174c-.265-.656-.49-1.31-.676-1.947c.64-.15 1.315-.283 2.015-.386zm7.26 0q1.044.153 2.006.387c-.18.632-.405 1.282-.66 1.933a26 26 0 0 0-1.345-2.32zm3.063.675q.727.226 1.375.498c1.732.74 2.852 1.708 2.852 2.476c-.005.768-1.125 1.74-2.857 2.475c-.42.18-.88.342-1.355.493a24 24 0 0 0-1.1-2.98c.45-1.017.81-2.01 1.085-2.964zm-13.395.004c.278.96.645 1.957 1.1 2.98a23 23 0 0 0-1.086 2.964c-.484-.15-.944-.318-1.37-.5c-1.732-.737-2.852-1.706-2.852-2.474s1.12-1.742 2.852-2.476c.42-.18.88-.342 1.356-.494m11.678 4.28c.265.657.49 1.312.676 1.948c-.64.157-1.316.29-2.016.39a26 26 0 0 0 1.341-2.338zm-9.945.02c.2.392.41.783.64 1.175q.345.586.705 1.143a22 22 0 0 1-2.006-.386c.18-.63.406-1.282.66-1.933zM17.92 16.32c.112.493.2.968.254 1.423c.23 1.868-.054 3.32-.714 3.708c-.147.09-.338.128-.563.128c-1.012 0-2.514-.807-4.11-2.28c.686-.72 1.37-1.536 2.02-2.44c1.107-.118 2.154-.3 3.113-.54zm-11.83.01c.96.234 2.006.415 3.107.532c.66.905 1.345 1.727 2.035 2.446c-1.595 1.483-3.092 2.295-4.11 2.295a1.2 1.2 0 0 1-.553-.132c-.666-.38-.955-1.834-.73-3.703c.054-.46.142-.944.25-1.438zm4.56.64q.661.032 1.345.034q.691.001 1.36-.034c-.44.572-.895 1.095-1.345 1.565q-.684-.706-1.36-1.565"/>
</svg>
  <text x="99" y="213" class="node-title">Dashboard layout</text>
  <text x="99" y="235" class="node-line">Sidebar, breadcrumb</text>
  <text x="99" y="253" class="node-line">Auth guard, page shell</text>
  <rect x="75" y="285" width="290" height="105" rx="10" class="node green"/>
  <text x="99" y="316" class="node-title">Content route</text>
  <text x="99" y="338" class="node-line">Create and edit pages</text>
  <text x="99" y="356" class="node-line">ContentWorkspace shell</text>
  <text x="99" y="374" class="node-line">Project id aware loading</text>
  <rect x="75" y="430" width="290" height="105" rx="10" class="node orange"/>
  <text x="99" y="461" class="node-title">Auth settings route</text>
  <text x="99" y="483" class="node-line">Platform account cards</text>
  <text x="99" y="501" class="node-line">Remote browser modal</text>
  <text x="99" y="519" class="node-line">Credential dialogs</text>
  <rect x="495" y="155" width="290" height="115" rx="10" class="node purple"/>
  <text x="519" y="186" class="node-title">useContentPageController</text>
  <text x="519" y="208" class="node-line">Load project and publications</text>
  <text x="519" y="226" class="node-line">Validate title/body/platforms</text>
  <text x="519" y="244" class="node-line">Save, sync, publish, poll</text>
  <rect x="495" y="310" width="290" height="100" rx="10" class="node teal"/>
  <text x="519" y="341" class="node-title">content-page-store</text>
  <text x="519" y="363" class="node-line">Content view and loading state</text>
  <text x="519" y="381" class="node-line">Selected platforms</text>
  <text x="519" y="399" class="node-line">Prepublish draft map</text>
  <rect x="495" y="450" width="290" height="125" rx="10" class="node blue"/>
  <svg x="519" y="468" width="26" height="26" viewBox="0 0 24 24" aria-hidden="true" focusable="false">
<path fill="#3178C6" d="M1.125 0C.502 0 0 .502 0 1.125v21.75C0 23.498.502 24 1.125 24h21.75c.623 0 1.125-.502 1.125-1.125V1.125C24 .502 23.498 0 22.875 0zm17.363 9.75q.918 0 1.627.111a6.4 6.4 0 0 1 1.306.34v2.458a4 4 0 0 0-.643-.361a5 5 0 0 0-.717-.26a5.5 5.5 0 0 0-1.426-.2q-.45 0-.819.086a2.1 2.1 0 0 0-.623.242q-.254.156-.393.374a.9.9 0 0 0-.14.49q0 .294.156.529q.156.234.443.444c.287.21.423.276.696.41q.41.203.926.416q.705.296 1.266.628q.561.333.963.753q.402.418.614.957q.213.538.214 1.253q0 .986-.373 1.656a3 3 0 0 1-1.012 1.085a4.4 4.4 0 0 1-1.487.596q-.85.18-1.79.18a10 10 0 0 1-1.84-.164a5.5 5.5 0 0 1-1.512-.493v-2.63a5.03 5.03 0 0 0 3.237 1.2q.5 0 .872-.09q.373-.09.623-.25q.249-.162.373-.38a1.02 1.02 0 0 0-.074-1.089a2.1 2.1 0 0 0-.537-.5a5.6 5.6 0 0 0-.807-.444a28 28 0 0 0-1.007-.436q-1.377-.575-2.053-1.405t-.676-2.005q0-.92.369-1.582q.368-.662 1.004-1.089a4.5 4.5 0 0 1 1.47-.629a7.5 7.5 0 0 1 1.77-.201m-15.113.188h9.563v2.166H9.506v9.646H6.789v-9.646H3.375z"/>
</svg>
  <text x="519" y="508" class="node-title">Dashboard API client</text>
  <text x="519" y="530" class="node-line">fetchDashboard JSON wrapper</text>
  <text x="519" y="548" class="node-line">streamDashboardText reader</text>
  <text x="519" y="566" class="node-line">Projects, accounts, AI modules</text>
  <rect x="915" y="145" width="290" height="105" rx="10" class="node green"/>
  <text x="939" y="176" class="node-title">ContentEditor</text>
  <text x="939" y="198" class="node-line">TipTap document</text>
  <text x="939" y="216" class="node-line">Toolbar and extensions</text>
  <text x="939" y="234" class="node-line">HTML source of truth</text>
  <rect x="915" y="290" width="290" height="105" rx="10" class="node orange"/>
  <text x="939" y="321" class="node-title">PrepublishPanel</text>
  <text x="939" y="343" class="node-line">Platform draft tabs</text>
  <text x="939" y="361" class="node-line">HTML / markdown / text</text>
  <text x="939" y="379" class="node-line">Format preview and edit</text>
  <rect x="915" y="435" width="290" height="125" rx="10" class="node purple"/>
  <svg x="939" y="453" width="26" height="26" viewBox="0 0 24 24" aria-hidden="true" focusable="false">
<path fill="#61DAFB" d="M14.23 12.004a2.236 2.236 0 0 1-2.235 2.236a2.236 2.236 0 0 1-2.236-2.236a2.236 2.236 0 0 1 2.235-2.236a2.236 2.236 0 0 1 2.236 2.236m2.648-10.69c-1.346 0-3.107.96-4.888 2.622c-1.78-1.653-3.542-2.602-4.887-2.602c-.41 0-.783.093-1.106.278c-1.375.793-1.683 3.264-.973 6.365C1.98 8.917 0 10.42 0 12.004c0 1.59 1.99 3.097 5.043 4.03c-.704 3.113-.39 5.588.988 6.38c.32.187.69.275 1.102.275c1.345 0 3.107-.96 4.888-2.624c1.78 1.654 3.542 2.603 4.887 2.603c.41 0 .783-.09 1.106-.275c1.374-.792 1.683-3.263.973-6.365C22.02 15.096 24 13.59 24 12.004c0-1.59-1.99-3.097-5.043-4.032c.704-3.11.39-5.587-.988-6.38a2.17 2.17 0 0 0-1.092-.278zm-.005 1.09v.006c.225 0 .406.044.558.127c.666.382.955 1.835.73 3.704c-.054.46-.142.945-.25 1.44a23.5 23.5 0 0 0-3.107-.534A24 24 0 0 0 12.769 4.7c1.592-1.48 3.087-2.292 4.105-2.295zm-9.77.02c1.012 0 2.514.808 4.11 2.28c-.686.72-1.37 1.537-2.02 2.442a23 23 0 0 0-3.113.538a15 15 0 0 1-.254-1.42c-.23-1.868.054-3.32.714-3.707c.19-.09.4-.127.563-.132zm4.882 3.05q.684.704 1.36 1.564c-.44-.02-.89-.034-1.345-.034q-.691-.001-1.36.034c.44-.572.895-1.096 1.345-1.565zM12 8.1c.74 0 1.477.034 2.202.093q.61.874 1.183 1.86q.557.961 1.018 1.946c-.308.655-.646 1.31-1.013 1.95c-.38.66-.773 1.288-1.18 1.87a25.6 25.6 0 0 1-4.412.005a27 27 0 0 1-1.183-1.86q-.557-.961-1.018-1.946a25 25 0 0 1 1.013-1.954c.38-.66.773-1.286 1.18-1.868A25 25 0 0 1 12 8.098zm-3.635.254c-.24.377-.48.763-.704 1.16q-.336.585-.635 1.174c-.265-.656-.49-1.31-.676-1.947c.64-.15 1.315-.283 2.015-.386zm7.26 0q1.044.153 2.006.387c-.18.632-.405 1.282-.66 1.933a26 26 0 0 0-1.345-2.32zm3.063.675q.727.226 1.375.498c1.732.74 2.852 1.708 2.852 2.476c-.005.768-1.125 1.74-2.857 2.475c-.42.18-.88.342-1.355.493a24 24 0 0 0-1.1-2.98c.45-1.017.81-2.01 1.085-2.964zm-13.395.004c.278.96.645 1.957 1.1 2.98a23 23 0 0 0-1.086 2.964c-.484-.15-.944-.318-1.37-.5c-1.732-.737-2.852-1.706-2.852-2.474s1.12-1.742 2.852-2.476c.42-.18.88-.342 1.356-.494m11.678 4.28c.265.657.49 1.312.676 1.948c-.64.157-1.316.29-2.016.39a26 26 0 0 0 1.341-2.338zm-9.945.02c.2.392.41.783.64 1.175q.345.586.705 1.143a22 22 0 0 1-2.006-.386c.18-.63.406-1.282.66-1.933zM17.92 16.32c.112.493.2.968.254 1.423c.23 1.868-.054 3.32-.714 3.708c-.147.09-.338.128-.563.128c-1.012 0-2.514-.807-4.11-2.28c.686-.72 1.37-1.536 2.02-2.44c1.107-.118 2.154-.3 3.113-.54zm-11.83.01c.96.234 2.006.415 3.107.532c.66.905 1.345 1.727 2.035 2.446c-1.595 1.483-3.092 2.295-4.11 2.295a1.2 1.2 0 0 1-.553-.132c-.666-.38-.955-1.834-.73-3.703c.054-.46.142-.944.25-1.438zm4.56.64q.661.032 1.345.034q.691.001 1.36-.034c-.44.572-.895 1.095-1.345 1.565q-.684-.706-1.36-1.565"/>
</svg>
  <text x="939" y="493" class="node-title">AIEditAssistant</text>
  <text x="939" y="515" class="node-line">Streaming proposal preview</text>
  <text x="939" y="533" class="node-line">Diff review</text>
  <text x="939" y="551" class="node-line">Accept or reject apply</text>
  <path d="M365 330 L495 210" class="request"/>
  <rect x="392" y="230" width="83" height="22" rx="11" fill="#ffffff" opacity="0.96"/>
  <text x="402" y="246" class="edge-label">load/save</text>
  <path d="M640 270 L640 310" class="data"/>
  <rect x="655" y="280" width="97" height="22" rx="11" fill="#ffffff" opacity="0.96"/>
  <text x="665" y="296" class="edge-label">local state</text>
  <path d="M785 500 L915 485" class="request"/>
  <rect x="815" y="458" width="83" height="22" rx="11" fill="#ffffff" opacity="0.96"/>
  <text x="825" y="474" class="edge-label">API calls</text>
  <path d="M785 212 L915 198" class="request"/>
  <rect x="820" y="174" width="58" height="22" rx="11" fill="#ffffff" opacity="0.96"/>
  <text x="830" y="190" class="edge-label">props</text>
  <path d="M785 360 L915 340" class="request"/>
  <rect x="820" y="318" width="62" height="22" rx="11" fill="#ffffff" opacity="0.96"/>
  <text x="830" y="334" class="edge-label">drafts</text>
  <path d="M785 500 L915 498" class="ai"/>
  <rect x="824" y="504" width="62" height="22" rx="11" fill="#ffffff" opacity="0.96"/>
  <text x="834" y="520" class="edge-label">stream</text>
</svg>
