<svg xmlns="http://www.w3.org/2000/svg" xmlns:xlink="http://www.w3.org/1999/xlink" viewBox="0 0 1280 720" width="1280" height="720" role="img">

  <style>
    text { font-family: 'Helvetica Neue', Helvetica, Arial, sans-serif; fill: #111827; }
    .title { font-size: 24px; font-weight: 700; }
    .subtitle { font-size: 13px; fill: #6b7280; }
    .section-title { font-size: 14px; font-weight: 700; }
    .node-title { font-size: 14px; font-weight: 700; }
    .node-line { font-size: 12px; fill: #6b7280; }
    .edge-label { font-size: 11px; font-weight: 600; fill: #374151; }
    .section { fill: #ffffff; stroke: #d1d5db; stroke-width: 1.4; stroke-dasharray: 7 5; }
    .node { fill: #ffffff; stroke: #d1d5db; stroke-width: 1.5; }
    .blue { fill: #eff6ff; stroke: #bfdbfe; }
    .green { fill: #f0fdf4; stroke: #bbf7d0; }
    .purple { fill: #faf5ff; stroke: #e9d5ff; }
    .orange { fill: #fff7ed; stroke: #fed7aa; }
    .teal { fill: #f0fdfa; stroke: #99f6e4; }
    .red { fill: #fef2f2; stroke: #fecaca; }
    .gray { fill: #f9fafb; stroke: #d1d5db; }
    .request { stroke: #2563eb; stroke-width: 2.2; fill: none; marker-end: url(#arrow-blue); }
    .data { stroke: #16a34a; stroke-width: 2.2; fill: none; marker-end: url(#arrow-green); }
    .async { stroke: #dc2626; stroke-width: 2.2; fill: none; stroke-dasharray: 7 5; marker-end: url(#arrow-red); }
    .ai { stroke: #9333ea; stroke-width: 2.2; fill: none; marker-end: url(#arrow-purple); }
    .browser { stroke: #ea580c; stroke-width: 2.2; fill: none; marker-end: url(#arrow-orange); }
    .muted { stroke: #9ca3af; stroke-width: 1.8; fill: none; marker-end: url(#arrow-gray); }
  </style>


  <defs>
    <marker id="arrow-blue" markerWidth="10" markerHeight="7" refX="9" refY="3.5" orient="auto"><polygon points="0 0, 10 3.5, 0 7" fill="#2563eb"/></marker>
    <marker id="arrow-green" markerWidth="10" markerHeight="7" refX="9" refY="3.5" orient="auto"><polygon points="0 0, 10 3.5, 0 7" fill="#16a34a"/></marker>
    <marker id="arrow-red" markerWidth="10" markerHeight="7" refX="9" refY="3.5" orient="auto"><polygon points="0 0, 10 3.5, 0 7" fill="#dc2626"/></marker>
    <marker id="arrow-purple" markerWidth="10" markerHeight="7" refX="9" refY="3.5" orient="auto"><polygon points="0 0, 10 3.5, 0 7" fill="#9333ea"/></marker>
    <marker id="arrow-orange" markerWidth="10" markerHeight="7" refX="9" refY="3.5" orient="auto"><polygon points="0 0, 10 3.5, 0 7" fill="#ea580c"/></marker>
    <marker id="arrow-gray" markerWidth="10" markerHeight="7" refX="9" refY="3.5" orient="auto"><polygon points="0 0, 10 3.5, 0 7" fill="#9ca3af"/></marker>
  </defs>

  <rect width="1280" height="720" fill="#ffffff"/>
  <text x="40" y="44" class="title">Remote Browser Session Module Design</text>
  <text x="40" y="68" class="subtitle">Cookie-based platform connections use an isolated browser container, proxied streams, and encrypted cookie storage.</text>
  <rect x="40" y="105" width="310" height="545" rx="14" class="section"/>
  <text x="62" y="135" class="section-title">Frontend auth page</text>
  <rect x="390" y="105" width="360" height="545" rx="14" class="section"/>
  <text x="412" y="135" class="section-title">Backend session control</text>
  <rect x="790" y="105" width="450" height="545" rx="14" class="section"/>
  <text x="812" y="135" class="section-title">Worker and runtime</text>
  <rect x="75" y="165" width="240" height="100" rx="10" class="node orange"/>
  <text x="99" y="196" class="node-title">Platform account card</text>
  <text x="99" y="218" class="node-line">Connect button</text>
  <text x="99" y="236" class="node-line">Session polling</text>
  <text x="99" y="254" class="node-line">Complete/cancel actions</text>
  <rect x="75" y="325" width="240" height="110" rx="10" class="node blue"/>
  <text x="99" y="356" class="node-title">Remote modal</text>
  <text x="99" y="378" class="node-line">Loads stream_url</text>
  <text x="99" y="396" class="node-line">noVNC iframe</text>
  <text x="99" y="414" class="node-line">User signs in</text>
  <rect x="420" y="145" width="290" height="105" rx="10" class="node purple"/>
  <text x="444" y="176" class="node-title">StartSession API</text>
  <text x="444" y="198" class="node-line">Validate JWT</text>
  <text x="444" y="216" class="node-line">Create DB row</text>
  <text x="444" y="234" class="node-line">Generate stream token</text>
  <rect x="420" y="300" width="290" height="105" rx="10" class="node green"/>
  <text x="444" y="331" class="node-title">BrowserSessionService</text>
  <text x="444" y="353" class="node-line">Adapter login URL</text>
  <text x="444" y="371" class="node-line">Worker client request</text>
  <text x="444" y="389" class="node-line">Status transitions</text>
  <rect x="420" y="465" width="290" height="110" rx="10" class="node red"/>
  <text x="444" y="496" class="node-title">CookieStore</text>
  <text x="444" y="518" class="node-line">Capture response</text>
  <text x="444" y="536" class="node-line">AES-256-GCM envelope</text>
  <text x="444" y="554" class="node-line">PlatformAccount update</text>
  <rect x="825" y="145" width="360" height="125" rx="10" class="node orange"/>
  <svg x="849" y="163" width="26" height="26" viewBox="0 0 24 24" aria-hidden="true" focusable="false">
<path fill="#00ADD8" d="M1.811 10.231c-.047 0-.058-.023-.035-.059l.246-.315c.023-.035.081-.058.128-.058h4.172c.046 0 .058.035.035.07l-.199.303c-.023.036-.082.07-.117.07zM.047 11.306c-.047 0-.059-.023-.035-.058l.245-.316c.023-.035.082-.058.129-.058h5.328c.047 0 .07.035.058.07l-.093.28c-.012.047-.058.07-.105.07zm2.828 1.075c-.047 0-.059-.035-.035-.07l.163-.292c.023-.035.07-.07.117-.07h2.337c.047 0 .07.035.07.082l-.023.28c0 .047-.047.082-.082.082zm12.129-2.36c-.736.187-1.239.327-1.963.514c-.176.046-.187.058-.34-.117c-.174-.199-.303-.327-.548-.444c-.737-.362-1.45-.257-2.115.175c-.795.514-1.204 1.274-1.192 2.22c.011.935.654 1.706 1.577 1.835c.795.105 1.46-.175 1.987-.77c.105-.13.198-.27.315-.434H10.47c-.245 0-.304-.152-.222-.35c.152-.362.432-.97.596-1.274a.32.32 0 0 1 .292-.187h4.253c-.023.316-.023.631-.07.947a5 5 0 0 1-.958 2.29c-.841 1.11-1.94 1.8-3.33 1.986c-1.145.152-2.209-.07-3.143-.77c-.865-.655-1.356-1.52-1.484-2.595c-.152-1.274.222-2.419.993-3.424c.83-1.086 1.928-1.776 3.272-2.02c1.098-.2 2.15-.07 3.096.571c.62.41 1.063.97 1.356 1.648c.07.105.023.164-.117.2m3.868 6.461c-1.064-.024-2.034-.328-2.852-1.029a3.67 3.67 0 0 1-1.262-2.255c-.21-1.32.152-2.489.947-3.529c.853-1.122 1.881-1.706 3.272-1.95c1.192-.21 2.314-.095 3.33.595c.923.63 1.496 1.484 1.648 2.605c.198 1.578-.257 2.863-1.344 3.962c-.771.783-1.718 1.273-2.805 1.495c-.315.06-.63.07-.934.106m2.78-4.72c-.011-.153-.011-.27-.034-.387c-.21-1.157-1.274-1.81-2.384-1.554c-1.087.245-1.788.935-2.045 2.033c-.21.912.234 1.835 1.075 2.21c.643.28 1.285.244 1.905-.07c.923-.48 1.425-1.228 1.484-2.233z"/>
</svg>
  <svg x="885" y="163" width="26" height="26" viewBox="0 0 24 24" aria-hidden="true" focusable="false">
<path fill="#2496ED" d="M13.983 11.078h2.119a.186.186 0 0 0 .186-.185V9.006a.186.186 0 0 0-.186-.186h-2.119a.185.185 0 0 0-.185.185v1.888c0 .102.083.185.185.185m-2.954-5.43h2.118a.186.186 0 0 0 .186-.186V3.574a.186.186 0 0 0-.186-.185h-2.118a.185.185 0 0 0-.185.185v1.888c0 .102.082.185.185.185m0 2.716h2.118a.187.187 0 0 0 .186-.186V6.29a.186.186 0 0 0-.186-.185h-2.118a.185.185 0 0 0-.185.185v1.887c0 .102.082.185.185.186m-2.93 0h2.12a.186.186 0 0 0 .184-.186V6.29a.185.185 0 0 0-.185-.185H8.1a.185.185 0 0 0-.185.185v1.887c0 .102.083.185.185.186m-2.964 0h2.119a.186.186 0 0 0 .185-.186V6.29a.185.185 0 0 0-.185-.185H5.136a.186.186 0 0 0-.186.185v1.887c0 .102.084.185.186.186m5.893 2.715h2.118a.186.186 0 0 0 .186-.185V9.006a.186.186 0 0 0-.186-.186h-2.118a.185.185 0 0 0-.185.185v1.888c0 .102.082.185.185.185m-2.93 0h2.12a.185.185 0 0 0 .184-.185V9.006a.185.185 0 0 0-.184-.186h-2.12a.185.185 0 0 0-.184.185v1.888c0 .102.083.185.185.185m-2.964 0h2.119a.185.185 0 0 0 .185-.185V9.006a.185.185 0 0 0-.184-.186h-2.12a.186.186 0 0 0-.186.186v1.887c0 .102.084.185.186.185m-2.92 0h2.12a.185.185 0 0 0 .184-.185V9.006a.185.185 0 0 0-.184-.186h-2.12a.185.185 0 0 0-.184.185v1.888c0 .102.082.185.185.185M23.763 9.89c-.065-.051-.672-.51-1.954-.51q-.508.001-1.01.087c-.248-1.7-1.653-2.53-1.716-2.566l-.344-.199l-.226.327c-.284.438-.49.922-.612 1.43c-.23.97-.09 1.882.403 2.661c-.595.332-1.55.413-1.744.42H.751a.75.75 0 0 0-.75.748a11.4 11.4 0 0 0 .692 4.062c.545 1.428 1.355 2.48 2.41 3.124c1.18.723 3.1 1.137 5.275 1.137a15.7 15.7 0 0 0 2.93-.266a12.3 12.3 0 0 0 3.823-1.389a10.5 10.5 0 0 0 2.61-2.136c1.252-1.418 1.998-2.997 2.553-4.4h.221c1.372 0 2.215-.549 2.68-1.009c.309-.293.55-.65.707-1.046l.098-.288Z"/>
</svg>
  <text x="849" y="203" class="node-title">browser-worker service</text>
  <text x="849" y="225" class="node-line">Create session container</text>
  <text x="849" y="243" class="node-line">Track worker_session_ref</text>
  <text x="849" y="261" class="node-line">TTL cleanup</text>
  <rect x="825" y="300" width="360" height="125" rx="10" class="node teal"/>
  <svg x="849" y="318" width="26" height="26" viewBox="0 0 72 72" aria-hidden="true" focusable="false">
<circle cx="36" cy="36" r="28" fill="#92d3f5"/><path fill="#92d3f5" fill-rule="evenodd" d="m34.312 27.158l.008.047a9 9 0 0 1 9.327 13.369L30.386 63.542C41.828 65.821 53.943 60.74 60.1 50.074c4.21-7.291 4.767-15.688 2.24-23.074H36q-.867.001-1.688.158" clip-rule="evenodd"/><path fill="#61b2e4" fill-rule="evenodd" d="M27 43.5L8.202 32.617C9.872 18.748 21.681 8 36 8c12.316 0 22.774 7.951 26.522 19H36a9 9 0 0 0-6.914 14.762z" clip-rule="evenodd"/><circle cx="36" cy="36" r="9" fill="#61b2e4"/><g fill="none" stroke="#000" stroke-width="2"><circle cx="36" cy="36" r="10"/><path stroke-linecap="round" d="m44.66 41l-11.5 19.919M11.081 33.16L31 44.66M36 26h23"/><circle cx="36" cy="36" r="28"/></g>
</svg>
  <text x="849" y="358" class="node-title">Runtime container</text>
  <text x="849" y="380" class="node-line">Chromium + CDP</text>
  <text x="849" y="398" class="node-line">Xvfb + x11vnc</text>
  <text x="849" y="416" class="node-line">websockify + noVNC</text>
  <rect x="825" y="470" width="360" height="105" rx="10" class="node purple"/>
  <text x="849" y="501" class="node-title">Capture endpoint</text>
  <text x="849" y="523" class="node-line">Read cookies via CDP</text>
  <text x="849" y="541" class="node-line">Extract account profile</text>
  <text x="849" y="559" class="node-line">Stop container after success</text>
  <path d="M315 215 L420 198" class="request"/>
  <rect x="338" y="176" width="58" height="22" rx="11" fill="#ffffff" opacity="0.96"/>
  <text x="348" y="192" class="edge-label">start</text>
  <path d="M565 250 L565 300" class="data"/>
  <rect x="580" y="268" width="97" height="22" rx="11" fill="#ffffff" opacity="0.96"/>
  <text x="590" y="284" class="edge-label">session row</text>
  <path d="M710 350 L825 195" class="browser"/>
  <rect x="730" y="244" width="90" height="22" rx="11" fill="#ffffff" opacity="0.96"/>
  <text x="740" y="260" class="edge-label">worker API</text>
  <path d="M1005 270 L1005 300" class="browser"/>
  <rect x="1020" y="269" width="111" height="22" rx="11" fill="#ffffff" opacity="0.96"/>
  <text x="1030" y="285" class="edge-label">start runtime</text>
  <path d="M420 360 L315 380" class="browser"/>
  <rect x="336" y="342" width="104" height="22" rx="11" fill="#ffffff" opacity="0.96"/>
  <text x="346" y="358" class="edge-label">stream proxy</text>
  <path d="M315 380 L420 520" class="request"/>
  <rect x="340" y="446" width="76" height="22" rx="11" fill="#ffffff" opacity="0.96"/>
  <text x="350" y="462" class="edge-label">complete</text>
  <path d="M710 505 L825 505" class="browser"/>
  <rect x="735" y="478" width="69" height="22" rx="11" fill="#ffffff" opacity="0.96"/>
  <text x="745" y="494" class="edge-label">capture</text>
  <path d="M825 545 L710 545" class="data"/>
  <rect x="735" y="552" width="69" height="22" rx="11" fill="#ffffff" opacity="0.96"/>
  <text x="745" y="568" class="edge-label">cookies</text>
</svg>
