<svg xmlns="http://www.w3.org/2000/svg" viewBox="0 0 1280 760" width="1280" height="760" role="img" aria-labelledby="title desc">
  <title id="title">MPP 高并发与分布式架构演进图</title>
  <desc id="desc">四层架构图：公网入口、应用服务、异步执行、数据与可观测性。</desc>
  <style>
    text {
      font-family: "Helvetica Neue", Helvetica, Arial, "PingFang SC", "Microsoft YaHei", "Microsoft JhengHei", "SimHei", sans-serif;
    }
    .page-title { fill: #111827; font-size: 25px; font-weight: 700; }
    .page-subtitle { fill: #6b7280; font-size: 13px; }
    .layer-label { fill: #6b7280; font-size: 11px; font-weight: 700; letter-spacing: .08em; }
    .node-title { fill: #111827; font-size: 15px; font-weight: 700; }
    .node-subtitle { fill: #6b7280; font-size: 12px; }
    .small { fill: #6b7280; font-size: 11px; }
    .box { fill: #ffffff; stroke: #d1d5db; stroke-width: 1.5; }
    .request { stroke: #2563eb; stroke-width: 2.2; fill: none; marker-end: url(#arrow-request); }
    .async { stroke: #9333ea; stroke-width: 2.2; fill: none; marker-end: url(#arrow-async); }
    .data { stroke: #16a34a; stroke-width: 2; fill: none; marker-end: url(#arrow-data); }
    .telemetry { stroke: #f97316; stroke-width: 2; stroke-dasharray: 6 5; fill: none; marker-end: url(#arrow-telemetry); }
    .rail { stroke: #9ca3af; stroke-width: 1.6; fill: none; stroke-dasharray: 7 5; }
  </style>
  <defs>
    <marker id="arrow-request" markerWidth="10" markerHeight="8" refX="9" refY="4" orient="auto">
      <polygon points="0 0, 10 4, 0 8" fill="#2563eb"/>
    </marker>
    <marker id="arrow-async" markerWidth="10" markerHeight="8" refX="9" refY="4" orient="auto">
      <polygon points="0 0, 10 4, 0 8" fill="#9333ea"/>
    </marker>
    <marker id="arrow-data" markerWidth="10" markerHeight="8" refX="9" refY="4" orient="auto">
      <polygon points="0 0, 10 4, 0 8" fill="#16a34a"/>
    </marker>
    <marker id="arrow-telemetry" markerWidth="10" markerHeight="8" refX="9" refY="4" orient="auto">
      <polygon points="0 0, 10 4, 0 8" fill="#f97316"/>
    </marker>
  </defs>

  <rect width="1280" height="760" fill="#ffffff"/>
  <text x="48" y="46" class="page-title">MPP 高并发与分布式架构演进图</text>
  <text x="48" y="69" class="page-subtitle">主请求链路、异步发布链路、数据协调和观测能力分层展示</text>

  <rect x="40" y="92" width="1180" height="132" rx="10" fill="#eff6ff" fill-opacity=".55" stroke="#bfdbfe" stroke-width="1.2" stroke-dasharray="7 5"/>
  <text x="58" y="116" class="layer-label">EDGE AND PUBLIC ENTRY</text>

  <rect x="40" y="252" width="1180" height="122" rx="10" fill="#f0fdfa" fill-opacity=".58" stroke="#99f6e4" stroke-width="1.2" stroke-dasharray="7 5"/>
  <text x="58" y="276" class="layer-label">APPLICATION SERVICES</text>

  <rect x="40" y="412" width="1180" height="118" rx="10" fill="#faf5ff" fill-opacity=".64" stroke="#d8b4fe" stroke-width="1.2" stroke-dasharray="7 5"/>
  <text x="58" y="436" class="layer-label">ASYNC PUBLISHING</text>

  <rect x="40" y="580" width="1180" height="110" rx="10" fill="#f9fafb" stroke="#e5e7eb" stroke-width="1.2" stroke-dasharray="7 5"/>
  <text x="58" y="604" class="layer-label">DATA AND INFRASTRUCTURE</text>

  <g transform="translate(72 134)">
    <rect class="box" x="0" y="0" width="154" height="58" rx="8"/>
    <rect x="0" y="0" width="154" height="19" rx="8" fill="#dbeafe"/>
    <rect x="0" y="13" width="154" height="6" fill="#dbeafe"/>
    <circle cx="14" cy="9.5" r="4" fill="#ef4444" opacity=".8"/>
    <circle cx="28" cy="9.5" r="4" fill="#f59e0b" opacity=".8"/>
    <circle cx="42" cy="9.5" r="4" fill="#10b981" opacity=".8"/>
    <text x="77" y="38" text-anchor="middle" class="node-title">User Browser</text>
    <text x="77" y="53" text-anchor="middle" class="node-subtitle">用户访问</text>
  </g>

  <g transform="translate(288 134)">
    <rect class="box" x="0" y="0" width="154" height="58" rx="8"/>
    <circle cx="36" cy="29" r="17" fill="#dbeafe" stroke="#93c5fd" stroke-width="1.4"/>
    <path d="M23 29h26M36 16c7 8 7 18 0 26M36 16c-7 8-7 18 0 26" stroke="#2563eb" stroke-width="1.2" fill="none"/>
    <text x="102" y="25" text-anchor="middle" class="node-title">CDN</text>
    <text x="102" y="43" text-anchor="middle" class="node-subtitle">静态缓存</text>
  </g>

  <g transform="translate(505 124)">
    <polygon points="95,0 190,39 95,78 0,39" fill="#ffffff" stroke="#bfdbfe" stroke-width="2"/>
    <text x="95" y="35" text-anchor="middle" class="node-title">Traefik</text>
    <text x="95" y="53" text-anchor="middle" class="node-subtitle">TLS / 路由 / 限流</text>
  </g>

  <g transform="translate(760 134)">
    <rect class="box" x="0" y="0" width="170" height="58" rx="8"/>
    <rect x="0" y="0" width="170" height="19" rx="8" fill="#dcfce7"/>
    <rect x="0" y="13" width="170" height="6" fill="#dcfce7"/>
    <text x="85" y="37" text-anchor="middle" class="node-title">frontend</text>
    <text x="85" y="53" text-anchor="middle" class="node-subtitle">Next.js</text>
  </g>

  <g transform="translate(96 298)">
    <rect class="box" x="0" y="0" width="212" height="60" rx="8"/>
    <circle cx="34" cy="30" r="20" fill="#10a37f"/>
    <text x="34" y="35" text-anchor="middle" fill="#ffffff" font-size="10" font-weight="700">AI</text>
    <text x="126" y="25" text-anchor="middle" class="node-title">ai-service</text>
    <text x="126" y="43" text-anchor="middle" class="node-subtitle">FastAPI / LLM stream</text>
  </g>

  <g transform="translate(485 286)">
    <rect x="0" y="0" width="250" height="82" rx="10" fill="#ffffff" stroke="#5eead4" stroke-width="2"/>
    <rect x="7" y="7" width="236" height="68" rx="8" fill="none" stroke="#99f6e4" stroke-width="1"/>
    <text x="125" y="32" text-anchor="middle" class="node-title">backend-api</text>
    <text x="125" y="51" text-anchor="middle" class="node-subtitle">Go / Echo / 业务编排</text>
    <text x="125" y="68" text-anchor="middle" class="small">鉴权、状态机、任务协调</text>
  </g>

  <g transform="translate(904 298)">
    <rect class="box" x="0" y="0" width="230" height="60" rx="8"/>
    <rect x="20" y="15" width="42" height="30" rx="6" fill="#dbeafe" stroke="#93c5fd" stroke-width="1.3"/>
    <circle cx="41" cy="30" r="10" fill="#2563eb" opacity=".85"/>
    <text x="146" y="25" text-anchor="middle" class="node-title">browser-worker</text>
    <text x="146" y="43" text-anchor="middle" class="node-subtitle">Chromium 资源池</text>
  </g>

  <g transform="translate(345 458)">
    <ellipse cx="14" cy="27" rx="9" ry="27" fill="#ede9fe" stroke="#c084fc" stroke-width="1.5"/>
    <rect x="14" y="0" width="220" height="54" fill="#faf5ff"/>
    <line x1="14" y1="0" x2="234" y2="0" stroke="#c084fc" stroke-width="1.5"/>
    <line x1="14" y1="54" x2="234" y2="54" stroke="#c084fc" stroke-width="1.5"/>
    <ellipse cx="234" cy="27" rx="9" ry="27" fill="#ffffff" stroke="#c084fc" stroke-width="1.5"/>
    <text x="119" y="23" text-anchor="middle" class="node-title">Redis Queue</text>
    <text x="119" y="41" text-anchor="middle" class="node-subtitle">Streams / Asynq</text>
  </g>

  <g transform="translate(650 458)">
    <rect class="box" x="0" y="0" width="174" height="54" rx="8"/>
    <text x="87" y="23" text-anchor="middle" class="node-title">publish-worker</text>
    <text x="87" y="41" text-anchor="middle" class="node-subtitle">发布与重试</text>
  </g>

  <g transform="translate(900 458)">
    <rect class="box" x="0" y="0" width="176" height="54" rx="8"/>
    <text x="88" y="23" text-anchor="middle" class="node-title">browser runtime</text>
    <text x="88" y="41" text-anchor="middle" class="node-subtitle">无插件浏览器发布</text>
  </g>

  <g transform="translate(1110 458)">
    <rect class="box" x="0" y="0" width="160" height="54" rx="8"/>
    <text x="80" y="23" text-anchor="middle" class="node-title">Platforms</text>
    <text x="80" y="41" text-anchor="middle" class="node-subtitle">WeChat / X / Zhihu</text>
  </g>

  <g transform="translate(95 622)">
    <ellipse cx="80" cy="0" rx="62" ry="16" fill="#dbeafe" stroke="#93c5fd" stroke-width="1.5"/>
    <rect x="18" y="0" width="124" height="50" fill="#eff6ff"/>
    <line x1="18" y1="0" x2="18" y2="50" stroke="#93c5fd" stroke-width="1.5"/>
    <line x1="142" y1="0" x2="142" y2="50" stroke="#93c5fd" stroke-width="1.5"/>
    <ellipse cx="80" cy="50" rx="62" ry="16" fill="#dbeafe" stroke="#93c5fd" stroke-width="1.5"/>
    <text x="80" y="30" text-anchor="middle" class="node-title">PostgreSQL</text>
    <text x="80" y="47" text-anchor="middle" class="node-subtitle">业务事实表</text>
  </g>

  <g transform="translate(330 622)">
    <ellipse cx="80" cy="0" rx="62" ry="16" fill="#fee2e2" stroke="#fca5a5" stroke-width="1.5"/>
    <rect x="18" y="0" width="124" height="50" fill="#fef2f2"/>
    <line x1="18" y1="0" x2="18" y2="50" stroke="#fca5a5" stroke-width="1.5"/>
    <line x1="142" y1="0" x2="142" y2="50" stroke="#fca5a5" stroke-width="1.5"/>
    <ellipse cx="80" cy="50" rx="62" ry="16" fill="#fee2e2" stroke="#fca5a5" stroke-width="1.5"/>
    <text x="80" y="30" text-anchor="middle" class="node-title">Redis</text>
    <text x="80" y="47" text-anchor="middle" class="node-subtitle">锁 / 配额 / 会话</text>
  </g>

  <g transform="translate(570 620)">
    <path d="M0,0 L144,0 L168,24 L168,68 L0,68 Z" fill="#ffffff" stroke="#d1d5db" stroke-width="1.5"/>
    <path d="M144,0 L144,24 L168,24" fill="#f3f4f6" stroke="#d1d5db" stroke-width="1.2"/>
    <text x="84" y="30" text-anchor="middle" class="node-title">Object Storage</text>
    <text x="84" y="49" text-anchor="middle" class="node-subtitle">媒体 / signed URL</text>
  </g>

  <g transform="translate(835 620)">
    <rect class="box" x="0" y="0" width="222" height="68" rx="8"/>
    <circle cx="34" cy="34" r="18" fill="#fed7aa" stroke="#fb923c" stroke-width="1.5"/>
    <path d="M25 35l8 8 17-24" stroke="#f97316" stroke-width="3" fill="none" stroke-linecap="round" stroke-linejoin="round"/>
    <text x="135" y="29" text-anchor="middle" class="node-title">Observability</text>
    <text x="135" y="48" text-anchor="middle" class="node-subtitle">Metrics / Logs / Traces</text>
  </g>

  <path class="request" d="M226 163 H288"/>
  <path class="request" d="M442 163 H505"/>
  <path class="request" d="M695 163 H760"/>
  <path class="request" d="M845 192 V238 H610 V286"/>
  <path class="request" d="M485 327 H308"/>
  <path class="request" d="M735 327 H904"/>

  <path class="async" d="M610 368 V408 H464 V458"/>
  <path class="async" d="M579 485 H650"/>
  <path class="async" d="M824 485 H900"/>
  <path class="async" d="M1076 485 H1110"/>

  <path class="rail" d="M160 560 H980"/>
  <path class="data" d="M610 368 V560"/>
  <path class="data" d="M464 512 V560"/>
  <path class="data" d="M737 512 V560"/>
  <path class="data" d="M988 512 V560"/>
  <path class="data" d="M175 560 V622"/>
  <path class="data" d="M410 560 V622"/>
  <path class="data" d="M654 560 V620"/>
  <path class="telemetry" d="M980 560 V620"/>

  <rect x="652" y="238" width="150" height="22" rx="5" fill="#ffffff" opacity=".92"/>
  <text x="727" y="254" text-anchor="middle" class="small">页面访问 / API 代理</text>

  <rect x="468" y="408" width="128" height="22" rx="5" fill="#ffffff" opacity=".92"/>
  <text x="532" y="424" text-anchor="middle" class="small">发布任务入队</text>

  <rect x="525" y="544" width="118" height="22" rx="5" fill="#ffffff" opacity=".92"/>
  <text x="584" y="560" text-anchor="middle" class="small">数据协调汇聚</text>

  <g transform="translate(48 724)">
    <line x1="0" y1="0" x2="34" y2="0" stroke="#2563eb" stroke-width="2.2" marker-end="url(#arrow-request)"/>
    <text x="44" y="5" class="small">请求 / 控制</text>
    <line x1="140" y1="0" x2="174" y2="0" stroke="#9333ea" stroke-width="2.2" marker-end="url(#arrow-async)"/>
    <text x="184" y="5" class="small">异步发布</text>
    <line x1="284" y1="0" x2="318" y2="0" stroke="#16a34a" stroke-width="2" marker-end="url(#arrow-data)"/>
    <text x="328" y="5" class="small">数据读写</text>
    <line x1="424" y1="0" x2="458" y2="0" stroke="#f97316" stroke-width="2" stroke-dasharray="6 5" marker-end="url(#arrow-telemetry)"/>
    <text x="468" y="5" class="small">监控采集</text>
  </g>
</svg>
