<svg xmlns="http://www.w3.org/2000/svg" xmlns:xlink="http://www.w3.org/1999/xlink" viewBox="0 0 1280 720" width="1280" height="720" role="img">

  <style>
    text { font-family: 'Helvetica Neue', Helvetica, Arial, sans-serif; fill: #111827; }
    .title { font-size: 24px; font-weight: 700; }
    .subtitle { font-size: 13px; fill: #6b7280; }
    .section-title { font-size: 14px; font-weight: 700; }
    .node-title { font-size: 14px; font-weight: 700; }
    .node-line { font-size: 12px; fill: #6b7280; }
    .edge-label { font-size: 11px; font-weight: 600; fill: #374151; }
    .section { fill: #ffffff; stroke: #d1d5db; stroke-width: 1.4; stroke-dasharray: 7 5; }
    .node { fill: #ffffff; stroke: #d1d5db; stroke-width: 1.5; }
    .blue { fill: #eff6ff; stroke: #bfdbfe; }
    .green { fill: #f0fdf4; stroke: #bbf7d0; }
    .purple { fill: #faf5ff; stroke: #e9d5ff; }
    .orange { fill: #fff7ed; stroke: #fed7aa; }
    .teal { fill: #f0fdfa; stroke: #99f6e4; }
    .red { fill: #fef2f2; stroke: #fecaca; }
    .gray { fill: #f9fafb; stroke: #d1d5db; }
    .request { stroke: #2563eb; stroke-width: 2.2; fill: none; marker-end: url(#arrow-blue); }
    .data { stroke: #16a34a; stroke-width: 2.2; fill: none; marker-end: url(#arrow-green); }
    .async { stroke: #dc2626; stroke-width: 2.2; fill: none; stroke-dasharray: 7 5; marker-end: url(#arrow-red); }
    .ai { stroke: #9333ea; stroke-width: 2.2; fill: none; marker-end: url(#arrow-purple); }
    .browser { stroke: #ea580c; stroke-width: 2.2; fill: none; marker-end: url(#arrow-orange); }
    .muted { stroke: #9ca3af; stroke-width: 1.8; fill: none; marker-end: url(#arrow-gray); }
  </style>


  <defs>
    <marker id="arrow-blue" markerWidth="10" markerHeight="7" refX="9" refY="3.5" orient="auto"><polygon points="0 0, 10 3.5, 0 7" fill="#2563eb"/></marker>
    <marker id="arrow-green" markerWidth="10" markerHeight="7" refX="9" refY="3.5" orient="auto"><polygon points="0 0, 10 3.5, 0 7" fill="#16a34a"/></marker>
    <marker id="arrow-red" markerWidth="10" markerHeight="7" refX="9" refY="3.5" orient="auto"><polygon points="0 0, 10 3.5, 0 7" fill="#dc2626"/></marker>
    <marker id="arrow-purple" markerWidth="10" markerHeight="7" refX="9" refY="3.5" orient="auto"><polygon points="0 0, 10 3.5, 0 7" fill="#9333ea"/></marker>
    <marker id="arrow-orange" markerWidth="10" markerHeight="7" refX="9" refY="3.5" orient="auto"><polygon points="0 0, 10 3.5, 0 7" fill="#ea580c"/></marker>
    <marker id="arrow-gray" markerWidth="10" markerHeight="7" refX="9" refY="3.5" orient="auto"><polygon points="0 0, 10 3.5, 0 7" fill="#9ca3af"/></marker>
  </defs>

  <rect width="1280" height="720" fill="#ffffff"/>
  <text x="40" y="44" class="title">Data and Infrastructure Module Design</text>
  <text x="40" y="68" class="subtitle">Docker Compose wires services; PostgreSQL owns durable state; Redis owns queues, locks, and transient OAuth state.</text>
  <rect x="40" y="105" width="360" height="545" rx="14" class="section"/>
  <text x="62" y="135" class="section-title">Compose services</text>
  <rect x="460" y="105" width="360" height="545" rx="14" class="section"/>
  <text x="482" y="135" class="section-title">Runtime dependencies</text>
  <rect x="880" y="105" width="360" height="545" rx="14" class="section"/>
  <text x="902" y="135" class="section-title">State model</text>
  <rect x="75" y="150" width="290" height="130" rx="10" class="node blue"/>
  <image href="icons/nextdotjs.svg" xlink:href="icons/nextdotjs.svg" x="99" y="168" width="26" height="26"/>
  <image href="icons/pnpm.svg" xlink:href="icons/pnpm.svg" x="135" y="168" width="26" height="26"/>
  <text x="99" y="208" class="node-title">frontend service</text>
  <text x="99" y="230" class="node-line">Next.js on port 3000</text>
  <text x="99" y="248" class="node-line">BACKEND_API_BASE_URL</text>
  <text x="99" y="266" class="node-line">pnpm build/dev</text>
  <rect x="75" y="300" width="290" height="130" rx="10" class="node green"/>
  <image href="icons/go.svg" xlink:href="icons/go.svg" x="99" y="318" width="26" height="26"/>
  <text x="99" y="358" class="node-title">backend service</text>
  <text x="99" y="380" class="node-line">Go API on port 8080</text>
  <text x="99" y="398" class="node-line">DB, Redis, AI, worker env</text>
  <text x="99" y="416" class="node-line">Air dev target</text>
  <rect x="75" y="450" width="290" height="130" rx="10" class="node purple"/>
  <image href="icons/fastapi.svg" xlink:href="icons/fastapi.svg" x="99" y="468" width="26" height="26"/>
  <image href="icons/uv.svg" xlink:href="icons/uv.svg" x="135" y="468" width="26" height="26"/>
  <text x="99" y="508" class="node-title">ai-service</text>
  <text x="99" y="530" class="node-line">FastAPI on port 8000</text>
  <text x="99" y="548" class="node-line">uv environment</text>
  <text x="99" y="566" class="node-line">LLM provider env</text>
  <rect x="495" y="150" width="290" height="130" rx="10" class="node green"/>
  <image href="icons/postgresql.svg" xlink:href="icons/postgresql.svg" x="519" y="168" width="26" height="26"/>
  <text x="519" y="208" class="node-title">PostgreSQL 17</text>
  <text x="519" y="230" class="node-line">Persistent postgres_data</text>
  <text x="519" y="248" class="node-line">GORM AutoMigrate</text>
  <text x="519" y="266" class="node-line">Development seed toggle</text>
  <rect x="495" y="320" width="290" height="130" rx="10" class="node red"/>
  <image href="icons/redis.svg" xlink:href="icons/redis.svg" x="519" y="338" width="26" height="26"/>
  <text x="519" y="378" class="node-title">Redis 8</text>
  <text x="519" y="400" class="node-line">redis_data volume</text>
  <text x="519" y="418" class="node-line">Publish queue</text>
  <text x="519" y="436" class="node-line">Locks and OAuth2 state</text>
  <rect x="495" y="490" width="290" height="130" rx="10" class="node orange"/>
  <image href="icons/docker.svg" xlink:href="icons/docker.svg" x="519" y="508" width="26" height="26"/>
  <text x="519" y="548" class="node-title">Docker runtime</text>
  <text x="519" y="570" class="node-line">browser-worker starts</text>
  <text x="519" y="588" class="node-line">mpp-browser-runtime</text>
  <text x="519" y="606" class="node-line">CDP and noVNC ports</text>
  <rect x="915" y="140" width="290" height="120" rx="10" class="node green"/>
  <text x="939" y="171" class="node-title">Core tables</text>
  <text x="939" y="193" class="node-line">users</text>
  <text x="939" y="211" class="node-line">projects</text>
  <text x="939" y="229" class="node-line">project_platform_publications</text>
  <text x="939" y="247" class="node-line">platform_accounts</text>
  <rect x="915" y="330" width="290" height="100" rx="10" class="node purple"/>
  <text x="939" y="361" class="node-title">Session tables</text>
  <text x="939" y="383" class="node-line">remote_browser_sessions</text>
  <text x="939" y="401" class="node-line">active partial unique index</text>
  <text x="939" y="419" class="node-line">stream token hash</text>
  <rect x="915" y="500" width="290" height="105" rx="10" class="node red"/>
  <text x="939" y="531" class="node-title">Queue keys</text>
  <text x="939" y="553" class="node-line">mpp:publish:jobs</text>
  <text x="939" y="571" class="node-line">mpp:publish:lock:*</text>
  <text x="939" y="589" class="node-line">TTL refresh scripts</text>
  <path d="M365 330 L430 330 L430 205 L495 205" class="data"/>
  <rect x="396" y="247" width="58" height="22" rx="11" fill="#ffffff" opacity="0.96"/>
  <text x="406" y="263" class="edge-label">DSN</text>
  <path d="M365 350 L495 375" class="async"/>
  <rect x="394" y="349" width="90" height="22" rx="11" fill="#ffffff" opacity="0.96"/>
  <text x="404" y="365" class="edge-label">Redis addr</text>
  <path d="M365 500 L495 535" class="request"/>
  <rect x="390" y="500" width="62" height="22" rx="11" fill="#ffffff" opacity="0.96"/>
  <text x="400" y="516" class="edge-label">AI URL</text>
  <path d="M785 205 C830 205 865 190 915 190" class="data"/>
  <path d="M785 375 L895 375 L895 545 L915 545" class="async"/>
  <path d="M785 535 L860 535 L860 380 L915 380" class="browser"/>
</svg>
