<svg xmlns="http://www.w3.org/2000/svg" viewBox="0 0 1280 860" width="1280" height="860" role="img" aria-labelledby="title desc">
  <title id="title">dashboard/content 平台草稿多格式适配架构</title>
  <desc id="desc">展示编辑和预览合并为 tab 后，用户通过预发布区块同步生成微信 HTML、知乎 Markdown、X 文本，并为 AI agent 介入预留扩展点。</desc>
  <style>
    text {
      font-family: 'Helvetica Neue', Helvetica, Arial, 'PingFang SC', 'Microsoft YaHei', 'Microsoft JhengHei', 'SimHei', sans-serif;
      fill: #111827;
    }
    .title { font-size: 24px; font-weight: 700; }
    .subtitle { font-size: 13px; fill: #6b7280; }
    .layer-title { font-size: 15px; font-weight: 700; }
    .node-title { font-size: 14px; font-weight: 700; }
    .node-subtitle { font-size: 12px; fill: #6b7280; }
    .label { font-size: 12px; fill: #374151; }
    .legend { font-size: 12px; fill: #6b7280; }
    .container { fill: #f9fafb; stroke: #d1d5db; stroke-width: 1.5; stroke-dasharray: 6 4; rx: 12; ry: 12; }
    .node { fill: #ffffff; stroke: #d1d5db; stroke-width: 1.5; rx: 8; ry: 8; }
    .blue { fill: #eff6ff; stroke: #bfdbfe; }
    .green { fill: #f0fdf4; stroke: #bbf7d0; }
    .purple { fill: #faf5ff; stroke: #e9d5ff; }
    .orange { fill: #fff7ed; stroke: #fed7aa; }
    .teal { fill: #f0fdfa; stroke: #99f6e4; }
    .red { fill: #fef2f2; stroke: #fecaca; }
    .chip { fill: #ffffff; stroke: #d1d5db; stroke-width: 1; rx: 12; ry: 12; }
    .arrow-ui { stroke: #2563eb; stroke-width: 2; fill: none; marker-end: url(#arrow-blue); }
    .arrow-sync { stroke: #16a34a; stroke-width: 2; fill: none; marker-end: url(#arrow-green); }
    .arrow-agent { stroke: #9333ea; stroke-width: 2; fill: none; marker-end: url(#arrow-purple); }
    .arrow-publish { stroke: #ea580c; stroke-width: 2; fill: none; marker-end: url(#arrow-orange); }
    .arrow-status { stroke: #dc2626; stroke-width: 2; fill: none; stroke-dasharray: 6 4; marker-end: url(#arrow-red); }
  </style>
  <defs>
    <marker id="arrow-blue" markerWidth="10" markerHeight="7" refX="9" refY="3.5" orient="auto">
      <polygon points="0 0, 10 3.5, 0 7" fill="#2563eb"/>
    </marker>
    <marker id="arrow-green" markerWidth="10" markerHeight="7" refX="9" refY="3.5" orient="auto">
      <polygon points="0 0, 10 3.5, 0 7" fill="#16a34a"/>
    </marker>
    <marker id="arrow-purple" markerWidth="10" markerHeight="7" refX="9" refY="3.5" orient="auto">
      <polygon points="0 0, 10 3.5, 0 7" fill="#9333ea"/>
    </marker>
    <marker id="arrow-orange" markerWidth="10" markerHeight="7" refX="9" refY="3.5" orient="auto">
      <polygon points="0 0, 10 3.5, 0 7" fill="#ea580c"/>
    </marker>
    <marker id="arrow-red" markerWidth="10" markerHeight="7" refX="9" refY="3.5" orient="auto">
      <polygon points="0 0, 10 3.5, 0 7" fill="#dc2626"/>
    </marker>
  </defs>

  <rect width="1280" height="860" fill="#ffffff"/>
  <text x="40" y="44" class="title">dashboard/content 平台草稿多格式适配架构</text>
  <text x="40" y="68" class="subtitle">编辑/预览合一，预发布区块显式同步平台格式，并为 AI agent 介入保留稳定写回边界</text>

  <rect x="40" y="95" width="440" height="560" class="container"/>
  <text x="62" y="124" class="layer-title">前端：内容创作页面</text>

  <rect x="70" y="145" width="380" height="170" class="node blue"/>
  <text x="95" y="176" class="node-title">内容工作区</text>
  <text x="95" y="198" class="node-subtitle">同一个模块内切换编辑和源稿预览</text>
  <rect x="95" y="220" width="110" height="34" class="chip"/>
  <text x="124" y="242" class="label">编辑 tab</text>
  <rect x="220" y="220" width="110" height="34" class="chip"/>
  <text x="249" y="242" class="label">预览 tab</text>
  <text x="95" y="278" class="node-subtitle">TipTap 输出 canonical HTML</text>
  <text x="95" y="298" class="node-subtitle">预览只展示源稿，不代表平台最终格式</text>

  <rect x="70" y="345" width="380" height="220" class="node green"/>
  <text x="95" y="376" class="node-title">预发布区块</text>
  <text x="95" y="398" class="node-subtitle">同步生成并查看各平台真实派生稿</text>
  <rect x="95" y="420" width="150" height="34" class="chip"/>
  <text x="122" y="442" class="label">同步到预发布</text>
  <rect x="260" y="420" width="150" height="34" class="chip"/>
  <text x="292" y="442" class="label">平台 tabs</text>
  <rect x="95" y="475" width="150" height="34" class="chip"/>
  <text x="124" y="497" class="label">原始格式</text>
  <rect x="260" y="475" width="150" height="34" class="chip"/>
  <text x="295" y="497" class="label">格式预览</text>
  <text x="95" y="535" class="node-subtitle">HTML / Markdown / text 来自 adapted_content</text>

  <rect x="70" y="595" width="380" height="38" class="node orange"/>
  <text x="95" y="620" class="node-title">发布区块：只发布已同步且未过期的平台稿</text>

  <rect x="520" y="95" width="330" height="560" class="container"/>
  <text x="542" y="124" class="layer-title">后端：保存、同步、Agent 扩展</text>

  <rect x="550" y="145" width="270" height="74" class="node blue"/>
  <text x="575" y="176" class="node-title">Project Save API</text>
  <text x="575" y="198" class="node-subtitle">保存 title / source_content / platforms</text>

  <rect x="550" y="255" width="270" height="82" class="node green"/>
  <text x="575" y="286" class="node-title">Prepublish Sync API</text>
  <text x="575" y="308" class="node-subtitle">显式同步各平台 adapted_content</text>
  <text x="575" y="328" class="node-subtitle">失败不覆盖旧平台稿</text>

  <rect x="550" y="375" width="270" height="92" class="node purple"/>
  <text x="575" y="406" class="node-title">AI Agent Hooks</text>
  <text x="575" y="428" class="node-subtitle">pre-adapt / post-adapt / repair</text>
  <text x="575" y="448" class="node-subtitle">写回 generated_by.type = agent</text>

  <rect x="550" y="505" width="270" height="110" class="node"/>
  <text x="575" y="536" class="node-title">Platform Adapters</text>
  <text x="575" y="558" class="node-subtitle">wechat: HTML</text>
  <text x="575" y="578" class="node-subtitle">zhihu: Markdown</text>
  <text x="575" y="598" class="node-subtitle">x: text</text>

  <rect x="890" y="95" width="350" height="560" class="container"/>
  <text x="912" y="124" class="layer-title">存储与发布</text>

  <rect x="920" y="145" width="290" height="74" class="node blue"/>
  <text x="945" y="176" class="node-title">projects</text>
  <text x="945" y="198" class="node-subtitle">source_content = HTML 源稿</text>

  <rect x="920" y="255" width="290" height="125" class="node green"/>
  <text x="945" y="286" class="node-title">project_platform_publications</text>
  <text x="945" y="308" class="node-subtitle">adapted_content JSONB</text>
  <text x="945" y="328" class="node-subtitle">format / source_revision / generated_by</text>
  <text x="945" y="348" class="node-subtitle">HTML / Markdown / text</text>

  <rect x="920" y="415" width="290" height="74" class="node purple"/>
  <text x="945" y="446" class="node-title">agent_runs (future)</text>
  <text x="945" y="468" class="node-subtitle">agent 输入、输出、审计和回滚</text>

  <rect x="920" y="525" width="290" height="90" class="node orange"/>
  <text x="945" y="556" class="node-title">PublishProject</text>
  <text x="945" y="578" class="node-subtitle">校验同步状态、格式、账号</text>
  <text x="945" y="598" class="node-subtitle">publisher 消费 adapted_content</text>

  <rect x="40" y="700" width="1200" height="95" class="container"/>
  <text x="62" y="729" class="layer-title">平台 publisher</text>
  <rect x="205" y="730" width="210" height="42" class="node orange"/>
  <text x="237" y="756" class="node-title">微信公众号：消费 HTML</text>
  <rect x="535" y="730" width="210" height="42" class="node teal"/>
  <text x="575" y="756" class="node-title">知乎：消费 Markdown</text>
  <rect x="865" y="730" width="210" height="42" class="node"/>
  <text x="920" y="756" class="node-title">X：消费 text</text>

  <path d="M450 238 L550 182" class="arrow-ui"/>
  <rect x="462" y="195" width="76" height="20" fill="#ffffff" opacity="0.95"/>
  <text x="468" y="210" class="label">保存源稿</text>

  <path d="M820 182 L920 182" class="arrow-sync"/>
  <rect x="840" y="158" width="62" height="20" fill="#ffffff" opacity="0.95"/>
  <text x="846" y="173" class="label">source</text>

  <path d="M450 437 L550 296" class="arrow-sync"/>
  <rect x="462" y="352" width="76" height="20" fill="#ffffff" opacity="0.95"/>
  <text x="468" y="367" class="label">点击同步</text>

  <path d="M685 337 L685 375" class="arrow-agent"/>
  <path d="M685 467 L685 505" class="arrow-agent"/>
  <path d="M820 560 L920 318" class="arrow-sync"/>
  <rect x="842" y="424" width="58" height="20" fill="#ffffff" opacity="0.95"/>
  <text x="848" y="439" class="label">写入平台稿</text>

  <path d="M920 330 C790 690, 420 685, 260 565" class="arrow-sync"/>
  <rect x="505" y="650" width="138" height="20" fill="#ffffff" opacity="0.95"/>
  <text x="511" y="665" class="label">读取原始格式和预览数据</text>

  <path d="M450 614 L920 570" class="arrow-publish"/>
  <rect x="640" y="574" width="118" height="20" fill="#ffffff" opacity="0.95"/>
  <text x="646" y="589" class="label">发布已同步平台稿</text>

  <path d="M1065 615 L1065 700" class="arrow-publish"/>
  <path d="M1065 700 L310 730" class="arrow-publish"/>
  <path d="M1065 700 L640 730" class="arrow-publish"/>
  <path d="M1065 700 L970 730" class="arrow-publish"/>

  <path d="M1210 570 C1250 665, 1155 800, 1065 615" class="arrow-status"/>
  <rect x="1130" y="690" width="82" height="20" fill="#ffffff" opacity="0.95"/>
  <text x="1136" y="705" class="label">状态写回</text>

  <g transform="translate(60, 825)">
    <line x1="0" y1="8" x2="34" y2="8" class="arrow-ui"/>
    <text x="44" y="12" class="legend">编辑/保存</text>
    <line x1="150" y1="8" x2="184" y2="8" class="arrow-sync"/>
    <text x="194" y="12" class="legend">预发布同步/数据读写</text>
    <line x1="360" y1="8" x2="394" y2="8" class="arrow-agent"/>
    <text x="404" y="12" class="legend">AI agent 介入</text>
    <line x1="530" y1="8" x2="564" y2="8" class="arrow-publish"/>
    <text x="574" y="12" class="legend">发布调用</text>
    <line x1="680" y1="8" x2="714" y2="8" class="arrow-status"/>
    <text x="724" y="12" class="legend">状态/错误写回</text>
  </g>
</svg>
