<svg xmlns="http://www.w3.org/2000/svg" xmlns:xlink="http://www.w3.org/1999/xlink" viewBox="0 0 1600 1100" width="1600" height="1100" role="img" aria-labelledby="title desc">
  <title id="title">MPP project overall architecture</title>
  <desc id="desc">Overall architecture for multi-platform-poster, showing the Next.js frontend, Go backend, FastAPI AI service, browser worker, PostgreSQL, Redis, Docker runtime, and publishing platform integrations with real SVG technology icons.</desc>
  <style>
    text {
      font-family: 'Helvetica Neue', Helvetica, Arial, 'PingFang SC', 'Microsoft YaHei', 'Microsoft JhengHei', 'SimHei', sans-serif;
      fill: #111827;
    }
    .title { font-size: 28px; font-weight: 700; }
    .subtitle { font-size: 14px; fill: #6b7280; }
    .section-title { font-size: 15px; font-weight: 700; fill: #111827; }
    .section-note { font-size: 11px; fill: #6b7280; }
    .node-title { font-size: 14px; font-weight: 700; }
    .node-subtitle { font-size: 12px; fill: #6b7280; }
    .node-small { font-size: 11px; fill: #6b7280; }
    .chip-label { font-size: 11px; font-weight: 600; fill: #374151; }
    .edge-label { font-size: 11px; font-weight: 600; fill: #374151; }
    .legend { font-size: 12px; fill: #6b7280; }
    .section {
      fill: #ffffff;
      stroke: #d1d5db;
      stroke-width: 1.5;
      stroke-dasharray: 7 5;
    }
    .node {
      fill: #ffffff;
      stroke: #d1d5db;
      stroke-width: 1.5;
    }
    .blue { fill: #eff6ff; stroke: #bfdbfe; }
    .green { fill: #f0fdf4; stroke: #bbf7d0; }
    .purple { fill: #faf5ff; stroke: #e9d5ff; }
    .orange { fill: #fff7ed; stroke: #fed7aa; }
    .teal { fill: #f0fdfa; stroke: #99f6e4; }
    .red { fill: #fef2f2; stroke: #fecaca; }
    .gray { fill: #f9fafb; stroke: #d1d5db; }
    .chip {
      fill: #ffffff;
      stroke: #e5e7eb;
      stroke-width: 1;
    }
    .arrow-request { stroke: #2563eb; stroke-width: 2.2; fill: none; marker-end: url(#arrow-blue); }
    .arrow-data { stroke: #16a34a; stroke-width: 2.2; fill: none; marker-end: url(#arrow-green); }
    .arrow-ai { stroke: #9333ea; stroke-width: 2.2; fill: none; marker-end: url(#arrow-purple); }
    .arrow-browser { stroke: #ea580c; stroke-width: 2.2; fill: none; marker-end: url(#arrow-orange); }
    .arrow-async { stroke: #dc2626; stroke-width: 2.2; fill: none; stroke-dasharray: 7 5; marker-end: url(#arrow-red); }
    .arrow-muted { stroke: #9ca3af; stroke-width: 1.8; fill: none; marker-end: url(#arrow-gray); }
  </style>
  <defs>
    <marker id="arrow-blue" markerWidth="10" markerHeight="7" refX="9" refY="3.5" orient="auto">
      <polygon points="0 0, 10 3.5, 0 7" fill="#2563eb"/>
    </marker>
    <marker id="arrow-green" markerWidth="10" markerHeight="7" refX="9" refY="3.5" orient="auto">
      <polygon points="0 0, 10 3.5, 0 7" fill="#16a34a"/>
    </marker>
    <marker id="arrow-purple" markerWidth="10" markerHeight="7" refX="9" refY="3.5" orient="auto">
      <polygon points="0 0, 10 3.5, 0 7" fill="#9333ea"/>
    </marker>
    <marker id="arrow-orange" markerWidth="10" markerHeight="7" refX="9" refY="3.5" orient="auto">
      <polygon points="0 0, 10 3.5, 0 7" fill="#ea580c"/>
    </marker>
    <marker id="arrow-red" markerWidth="10" markerHeight="7" refX="9" refY="3.5" orient="auto">
      <polygon points="0 0, 10 3.5, 0 7" fill="#dc2626"/>
    </marker>
    <marker id="arrow-gray" markerWidth="10" markerHeight="7" refX="9" refY="3.5" orient="auto">
      <polygon points="0 0, 10 3.5, 0 7" fill="#9ca3af"/>
    </marker>
  </defs>

  <rect width="1600" height="1100" fill="#ffffff"/>

  <image href="mpp-with-name.svg" xlink:href="mpp-with-name.svg" x="42" y="26" width="165" height="60" preserveAspectRatio="xMidYMid meet"/>
  <text x="232" y="48" class="title">MPP Overall Architecture</text>
  <text x="232" y="73" class="subtitle">Next.js workspace for creation and prepublish; Go backend handles auth, projects, queues, and remote browser sessions.</text>
  <text x="232" y="94" class="subtitle">FastAPI AI Service streams content and prepublish editing suggestions.</text>

  <g transform="translate(0,-60)">

  <rect x="40" y="190" width="345" height="580" rx="14" class="section"/>
  <text x="62" y="220" class="section-title">Frontend / User Workspace</text>
  <text x="62" y="239" class="section-note">frontend - Next.js App Router - React 19</text>

  <rect x="70" y="260" width="285" height="72" rx="10" class="node blue"/>
  <text x="96" y="291" class="node-title">Creator / Operator</text>
  <text x="96" y="313" class="node-subtitle">Dashboard, login, auth, publishing</text>

  <rect x="70" y="360" width="285" height="120" rx="10" class="node"/>
  <image href="icons/nextdotjs.svg" xlink:href="icons/nextdotjs.svg" x="95" y="382" width="28" height="28"/>
  <image href="icons/react.svg" xlink:href="icons/react.svg" x="133" y="382" width="28" height="28"/>
  <image href="icons/typescript.svg" xlink:href="icons/typescript.svg" x="171" y="382" width="28" height="28"/>
  <text x="96" y="431" class="node-title">Dashboard &amp; Content Workspace</text>
  <text x="96" y="453" class="node-subtitle">Projects, editor, previews, publish panel</text>

  <rect x="70" y="510" width="285" height="88" rx="10" class="node teal"/>
  <image href="icons/tailwindcss.svg" xlink:href="icons/tailwindcss.svg" x="95" y="532" width="26" height="26"/>
  <image href="icons/shadcnui.svg" xlink:href="icons/shadcnui.svg" x="132" y="532" width="26" height="26"/>
  <text x="96" y="575" class="node-title">UI Components &amp; Editor</text>
  <text x="96" y="591" class="node-small">Tailwind CSS 4 - shadcn/ui - TipTap</text>

  <rect x="70" y="628" width="285" height="104" rx="10" class="node orange"/>
  <text x="96" y="660" class="node-title">Next API Proxy &amp; Remote Modal</text>
  <text x="96" y="682" class="node-subtitle">Injects Authorization from cookies</text>
  <text x="96" y="704" class="node-subtitle">Embeds noVNC browser stream</text>

  <rect x="420" y="190" width="440" height="580" rx="14" class="section"/>
  <text x="442" y="220" class="section-title">Backend API / Core Domain</text>
  <text x="442" y="239" class="section-note">backend - Go 1.26 - Echo - GORM - JWT</text>

  <rect x="450" y="260" width="380" height="88" rx="10" class="node blue"/>
  <image href="icons/go.svg" xlink:href="icons/go.svg" x="475" y="286" width="38" height="28"/>
  <text x="530" y="293" class="node-title">Echo HTTP API</text>
  <text x="530" y="316" class="node-subtitle">/api/user/dashboard, /api/admin/dashboard</text>
  <text x="530" y="334" class="node-subtitle">/api/browser-stream reverse proxy</text>

  <rect x="450" y="378" width="180" height="98" rx="10" class="node"/>
  <text x="474" y="410" class="node-title">Auth &amp; Accounts</text>
  <text x="474" y="432" class="node-subtitle">JWT middleware</text>
  <text x="474" y="452" class="node-subtitle">Accounts, OAuth2, cookies</text>

  <rect x="650" y="378" width="180" height="98" rx="10" class="node green"/>
  <text x="674" y="410" class="node-title">Dashboard Service</text>
  <text x="674" y="432" class="node-subtitle">projects / publications</text>
  <text x="674" y="452" class="node-subtitle">prepublish sync / status</text>

  <rect x="450" y="508" width="180" height="108" rx="10" class="node red"/>
  <image href="icons/redis.svg" xlink:href="icons/redis.svg" x="474" y="532" width="28" height="28"/>
  <text x="514" y="539" class="node-title">Publish Worker</text>
  <text x="474" y="580" class="node-subtitle">Redis BLPOP queue</text>
  <text x="474" y="600" class="node-subtitle">Locks, retry, status updates</text>

  <rect x="650" y="508" width="180" height="108" rx="10" class="node orange"/>
  <text x="674" y="540" class="node-title">Publisher Factory</text>
  <text x="674" y="562" class="node-subtitle">wechat, x</text>
  <text x="674" y="582" class="node-subtitle">zhihu, douyin</text>
  <text x="674" y="602" class="node-subtitle">Adapt + publish</text>

  <rect x="450" y="646" width="380" height="84" rx="10" class="node purple"/>
  <image href="icons/docker.svg" xlink:href="icons/docker.svg" x="475" y="670" width="28" height="28"/>
  <text x="520" y="678" class="node-title">BrowserSessionService</text>
  <text x="520" y="700" class="node-subtitle">Creates remote login sessions</text>
  <text x="520" y="718" class="node-subtitle">Validates stream token and stores cookies</text>

  <rect x="895" y="190" width="320" height="580" rx="14" class="section"/>
  <text x="917" y="220" class="section-title">AI Service &amp; Browser Worker</text>
  <text x="917" y="239" class="section-note">ai-service + browser-worker isolated boundary</text>

  <rect x="925" y="260" width="260" height="138" rx="10" class="node purple"/>
  <image href="icons/python.svg" xlink:href="icons/python.svg" x="950" y="284" width="28" height="28"/>
  <image href="icons/fastapi.svg" xlink:href="icons/fastapi.svg" x="988" y="284" width="28" height="28"/>
  <image href="icons/langchain.svg" xlink:href="icons/langchain.svg" x="1026" y="284" width="28" height="28"/>
  <text x="950" y="334" class="node-title">FastAPI AI Service</text>
  <text x="950" y="356" class="node-subtitle">LangChain prompts, ChatOpenAI</text>
  <text x="950" y="376" class="node-subtitle">Content and prepublish edit streams</text>

  <rect x="925" y="430" width="260" height="78" rx="10" class="node"/>
  <image href="icons/openai.svg" xlink:href="icons/openai.svg" x="950" y="454" width="28" height="28"/>
  <text x="990" y="462" class="node-title">OpenAI-compatible LLM</text>
  <text x="990" y="484" class="node-subtitle">LLM_PROVIDER_URL / MODEL / KEY</text>

  <rect x="925" y="540" width="260" height="92" rx="10" class="node orange"/>
  <image href="icons/go.svg" xlink:href="icons/go.svg" x="950" y="565" width="34" height="24"/>
  <image href="icons/docker.svg" xlink:href="icons/docker.svg" x="994" y="563" width="28" height="28"/>
  <text x="1036" y="571" class="node-title">browser-worker</text>
  <text x="950" y="610" class="node-subtitle">Create, query, capture, stop sessions</text>

  <rect x="925" y="660" width="260" height="74" rx="10" class="node teal"/>
  <image href="icons/chromium.svg" xlink:href="icons/chromium.svg" x="950" y="680" width="30" height="30"/>
  <text x="994" y="687" class="node-title">Browser Runtime Container</text>
  <text x="994" y="707" class="node-subtitle">Chromium, CDP, Xvfb</text>
  <text x="994" y="725" class="node-subtitle">x11vnc, noVNC</text>

  <rect x="1250" y="190" width="310" height="580" rx="14" class="section"/>
  <text x="1272" y="220" class="section-title">Data &amp; Infra</text>
  <text x="1272" y="239" class="section-note">Docker Compose local/deploy dependencies</text>

  <rect x="1280" y="260" width="250" height="138" rx="10" class="node green"/>
  <image href="icons/postgresql.svg" xlink:href="icons/postgresql.svg" x="1305" y="286" width="34" height="34"/>
  <text x="1352" y="296" class="node-title">PostgreSQL 17</text>
  <text x="1305" y="338" class="node-subtitle">users, projects, publications</text>
  <text x="1305" y="358" class="node-subtitle">platform_accounts</text>
  <text x="1305" y="376" class="node-subtitle">browser_sessions</text>
  <text x="1305" y="394" class="node-subtitle">GORM AutoMigrate + dev seed</text>

  <rect x="1280" y="430" width="250" height="112" rx="10" class="node red"/>
  <image href="icons/redis.svg" xlink:href="icons/redis.svg" x="1305" y="456" width="34" height="34"/>
  <text x="1352" y="466" class="node-title">Redis 8</text>
  <text x="1305" y="508" class="node-subtitle">mpp:publish:jobs queue</text>
  <text x="1305" y="528" class="node-subtitle">mpp:publish:lock:* locks</text>

  <rect x="1280" y="580" width="250" height="116" rx="10" class="node orange"/>
  <image href="icons/docker.svg" xlink:href="icons/docker.svg" x="1305" y="604" width="32" height="32"/>
  <image href="icons/pnpm.svg" xlink:href="icons/pnpm.svg" x="1348" y="606" width="28" height="28"/>
  <image href="icons/uv.svg" xlink:href="icons/uv.svg" x="1388" y="606" width="28" height="28"/>
  <text x="1305" y="654" class="node-title">Docker Compose + build tools</text>
  <text x="1305" y="676" class="node-subtitle">frontend, backend, ai-service</text>
  <text x="1305" y="694" class="node-subtitle">db, redis</text>

  <path d="M212 332 L212 360" class="arrow-request"/>
  <path d="M212 480 L212 510" class="arrow-request"/>
  <path d="M355 678 L406 678 L406 304 L450 304" class="arrow-request"/>
  <rect x="360" y="336" width="74" height="22" rx="11" fill="#ffffff" opacity="0.95"/>
  <text x="371" y="352" class="edge-label">API proxy</text>

  <path d="M830 304 L878 304 L878 329 L925 329" class="arrow-ai"/>
  <rect x="842" y="278" width="78" height="22" rx="11" fill="#ffffff" opacity="0.95"/>
  <text x="853" y="294" class="edge-label">AI stream</text>

  <path d="M1055 398 L1055 430" class="arrow-ai"/>
  <path d="M830 688 L925 688" class="arrow-browser"/>
  <rect x="844" y="662" width="76" height="22" rx="11" fill="#ffffff" opacity="0.95"/>
  <text x="854" y="678" class="edge-label">worker API</text>

  <path d="M450 690 L355 690" class="arrow-browser"/>
  <rect x="368" y="664" width="88" height="22" rx="11" fill="#ffffff" opacity="0.95"/>
  <text x="378" y="680" class="edge-label">VNC stream</text>

  <path d="M830 562 L875 562 L875 812" class="arrow-data"/>
  <rect x="843" y="640" width="64" height="22" rx="11" fill="#ffffff" opacity="0.95"/>
  <text x="855" y="656" class="edge-label">publish</text>

  <path d="M860 245 L1235 245 L1235 329 L1280 329" class="arrow-data"/>

  <path d="M450 562 L420 562 L420 748 L1220 748 L1220 486 L1280 486" class="arrow-async"/>
  <rect x="732" y="735" width="82" height="22" rx="11" fill="#ffffff" opacity="0.95"/>
  <text x="744" y="751" class="edge-label">queue lock</text>

  <rect x="40" y="812" width="1520" height="210" rx="14" class="section"/>
  <text x="62" y="842" class="section-title">Publishing Targets</text>
  <text x="62" y="861" class="section-note">Registered publishers: wechat, x, zhihu, douyin.</text>
  <text x="62" y="879" class="section-note">Frontend also reserves bilibili and xiaohongshu entry points.</text>

  <g transform="translate(80,890)">
    <rect x="0" y="0" width="210" height="84" rx="12" class="node"/>
    <image href="icons/platform-wechat.svg" xlink:href="icons/platform-wechat.svg" x="24" y="24" width="36" height="36"/>
    <text x="78" y="30" class="node-title">WeChat OA</text>
    <text x="78" y="52" class="node-subtitle">HTML draft</text>
    <text x="78" y="70" class="node-subtitle">Credential publish</text>

    <rect x="245" y="0" width="210" height="84" rx="12" class="node"/>
    <image href="icons/platform-zhihu.svg" xlink:href="icons/platform-zhihu.svg" x="269" y="24" width="36" height="36"/>
    <text x="323" y="32" class="node-title">Zhihu</text>
    <text x="323" y="54" class="node-subtitle">Markdown</text>
    <text x="323" y="72" class="node-subtitle">Cookie session</text>

    <rect x="490" y="0" width="210" height="84" rx="12" class="node"/>
    <image href="icons/platform-x.svg" xlink:href="icons/platform-x.svg" x="514" y="24" width="36" height="36"/>
    <text x="568" y="32" class="node-title">X</text>
    <text x="568" y="54" class="node-subtitle">Text / OAuth2</text>
    <text x="568" y="72" class="node-subtitle">Intent URL</text>

    <rect x="735" y="0" width="210" height="84" rx="12" class="node"/>
    <image href="icons/platform-douyin.svg" xlink:href="icons/platform-douyin.svg" x="759" y="24" width="36" height="36"/>
    <text x="813" y="32" class="node-title">Douyin</text>
    <text x="813" y="54" class="node-subtitle">Cookie session</text>
    <text x="813" y="72" class="node-subtitle">Browser automation</text>

    <rect x="1030" y="0" width="170" height="84" rx="12" class="node gray"/>
    <image href="icons/platform-bilibili.svg" xlink:href="icons/platform-bilibili.svg" x="1054" y="24" width="34" height="34"/>
    <text x="1102" y="34" class="node-title">Bilibili</text>
    <text x="1102" y="56" class="node-subtitle">UI/model slot</text>

    <rect x="1222" y="0" width="190" height="84" rx="12" class="node gray"/>
    <image href="icons/platform-xiaohongshu.svg" xlink:href="icons/platform-xiaohongshu.svg" x="1246" y="24" width="34" height="34"/>
    <text x="1294" y="34" class="node-title">Xiaohongshu</text>
    <text x="1294" y="56" class="node-subtitle">UI/model slot</text>
  </g>

  <path d="M1055 734 L1055 812" class="arrow-browser"/>
  <rect x="1066" y="763" width="96" height="22" rx="11" fill="#ffffff" opacity="0.95"/>
  <text x="1076" y="779" class="edge-label">browser login</text>

  <g transform="translate(1010,1038)">
    <line x1="0" y1="8" x2="34" y2="8" class="arrow-request"/>
    <text x="44" y="12" class="legend">Sync HTTP/API</text>
    <line x1="150" y1="8" x2="184" y2="8" class="arrow-data"/>
    <text x="194" y="12" class="legend">Data / publish</text>
    <line x1="316" y1="8" x2="350" y2="8" class="arrow-ai"/>
    <text x="360" y="12" class="legend">AI streaming edit</text>
    <line x1="0" y1="34" x2="34" y2="34" class="arrow-browser"/>
    <text x="44" y="38" class="legend">Remote browser session</text>
    <line x1="250" y1="34" x2="284" y2="34" class="arrow-async"/>
    <text x="294" y="38" class="legend">Redis queue / locks</text>
  </g>
  </g>
</svg>
